<svg xmlns="http://www.w3.org/2000/svg">
    <symbol id="logo" viewBox="0 0 53 38">
        <path d="M0 8.56477C0 6.10363 0.8 4.13472 2.4 2.46114C4.1 0.88601 6.1 0 8.6 0C11.2 0 13.2 0.689119 14.8 2.1658L13.6 3.93782C13 3.34715 12.2 2.95337 11.3 2.65803C10.4 2.36269 9.6 2.1658 8.7 2.1658C6.8 2.1658 5.3 2.75648 4.1 3.93782C3 5.21762 2.5 6.6943 2.5 8.56477C2.5 10.4352 3.1 12.0104 4.2 13.2902C5.4 14.5699 6.9 15.1606 8.8 15.1606C9.7 15.1606 10.7 14.9637 11.6 14.5699C12.5 14.1762 13.3 13.6839 14 12.9948L15.3 14.6684C13.5 16.4404 11.3 17.3264 8.7 17.3264C6.1 17.3264 4 16.5389 2.4 14.8653C0.8 13.0933 0 11.0259 0 8.56477Z" />
        <path d="M18.3 17.0311V0.295334H20.6V7.58031H29.4V0.295334H31.8V16.9326H29.4V9.64767H20.6V16.9326H18.3V17.0311Z" />
        <path d="M35.2 8.56477C35.2 6.20207 36 4.13472 37.7 2.46114C39.3 0.787565 41.4 0 43.9 0C46.4 0 48.5 0.787565 50.1 2.46114C51.8 4.13472 52.6 6.10363 52.6 8.56477C52.6 11.0259 51.8 13.0933 50.1 14.7668C48.4 16.4404 46.4 17.3264 43.9 17.3264C41.4 17.3264 39.3 16.4404 37.7 14.7668C36 13.0933 35.2 11.0259 35.2 8.56477ZM37.7 8.56477C37.7 10.4352 38.3 12.0104 39.5 13.2902C40.7 14.5699 42.2 15.1606 44 15.1606C45.8 15.1606 47.3 14.5699 48.5 13.2902C49.7 12.0104 50.3 10.4352 50.3 8.56477C50.3 6.79275 49.7 5.21762 48.5 4.03627C47.3 2.85492 45.8 2.1658 44 2.1658C42.2 2.1658 40.7 2.75648 39.5 4.03627C38.2 5.21762 37.7 6.6943 37.7 8.56477Z" />
        <path d="M0 29.2383C0 26.7772 0.8 24.8083 2.4 23.1347C4.1 21.5596 6.1 20.6736 8.6 20.6736C11.2 20.6736 13.2 21.3627 14.8 22.8394L13.6 24.6114C13 24.0207 12.2 23.6269 11.3 23.3316C10.4 23.0363 9.5 22.8394 8.7 22.8394C6.8 22.8394 5.3 23.43 4.1 24.6114C3 25.7927 2.4 27.3679 2.4 29.1399C2.4 31.0104 3 32.5855 4.1 33.8653C5.3 35.1451 6.8 35.7357 8.7 35.7357C9.6 35.7357 10.6 35.5389 11.5 35.1451C12.4 34.7513 13.2 34.2591 13.9 33.5699L15.2 35.2435C13.4 37.0155 11.2 37.9015 8.6 37.9015C6 37.9015 3.9 37.114 2.3 35.4404C0.8 33.7668 0 31.6995 0 29.2383Z" />
        <path d="M16.8 29.2383C16.8 26.7772 17.6 24.8083 19.2 23.1347C20.8 21.5596 22.9 20.6736 25.4 20.6736C28 20.6736 30 21.3627 31.6 22.8394L30.4 24.6114C29.8 24.0207 29 23.6269 28.1 23.3316C27.2 23.0363 26.3 22.8394 25.5 22.8394C23.6 22.8394 22.1 23.43 20.9 24.6114C19.8 25.7927 19.2 27.3679 19.2 29.1399C19.2 31.0104 19.8 32.5855 20.9 33.8653C22.1 35.1451 23.6 35.7357 25.5 35.7357C26.4 35.7357 27.4 35.5389 28.3 35.1451C29.2 34.7513 30 34.2591 30.7 33.5699L32 35.2435C30.2 37.0155 28 37.9015 25.4 37.9015C22.8 37.9015 20.7 37.114 19.1 35.4404C17.6 33.7668 16.8 31.6995 16.8 29.2383Z" />
        <path d="M33.6 29.2383C33.6 26.8756 34.4 24.8083 36.1 23.1347C37.7 21.4611 39.8 20.6736 42.3 20.6736C44.8 20.6736 46.9 21.4611 48.5 23.1347C50.1 24.8083 51 26.7772 51 29.2383C51 31.6995 50.2 33.7668 48.5 35.4404C46.8 37.114 44.8 38 42.3 38C39.8 38 37.7 37.114 36.1 35.4404C34.4 33.7668 33.6 31.6995 33.6 29.2383ZM36 29.2383C36 31.1088 36.6 32.6839 37.8 33.9637C39 35.2435 40.5 35.8342 42.3 35.8342C44.1 35.8342 45.6 35.2435 46.8 33.9637C48 32.6839 48.6 31.1088 48.6 29.2383C48.6 27.4663 48 25.8912 46.8 24.7098C45.6 23.5285 44.1 22.8394 42.3 22.8394C40.5 22.8394 39 23.43 37.8 24.7098C36.6 25.8912 36 27.3679 36 29.2383Z" />
    </symbol>

    <symbol id="phone" viewBox="0 0 14 15">
        <path d="M13.7455 13.0923C13.4909 13.5935 12.9818 13.8441 12.4727 14.0947C11.8364 14.4706 11.3273 14.5959 10.6909 14.5959C9.8 14.5959 8.90909 14.22 8.14545 13.9694C7.50909 13.7188 7 13.4682 6.36364 13.2176C4.58182 12.09 2.54545 10.0853 1.52727 8.45643C1.14545 7.82996 0.890909 7.32878 0.636364 6.70231C0.381818 5.82525 0 5.07349 0 4.07113C0 3.44466 0.127273 2.81819 0.509091 2.19172C0.763636 1.69054 1.01818 1.18936 1.52727 0.938771C1.90909 0.938771 2.54545 0.813477 2.92727 0.813477C3.05455 0.813477 3.05455 0.813477 3.18182 0.813477C3.43636 0.938771 3.56364 1.31465 3.69091 1.56524C3.94545 2.19172 4.32727 2.69289 4.58182 3.31936C4.83636 3.56995 5.09091 3.82054 5.09091 4.07113C5.09091 4.6976 3.30909 5.57466 3.30909 6.07584C3.30909 6.32643 3.56364 6.70231 3.69091 6.9529C4.70909 8.70702 5.98182 9.95997 7.76364 10.9623C8.01818 11.0876 8.4 11.3382 8.65455 11.3382C9.16364 11.3382 10.0545 9.58408 10.6909 9.58408C10.9455 9.58408 11.2 9.83467 11.4545 10.0853C11.9636 10.4611 12.6 10.7117 13.1091 11.0876C13.3636 11.2129 13.7455 11.3382 13.8727 11.5888C13.8727 11.7141 13.8727 11.7141 13.8727 11.8394C14 12.09 13.8727 12.7164 13.7455 13.0923Z" />
    </symbol>

    <symbol id="listWhite" viewBox="0 0 39 37">
        <path d="M5.68662 22.4709C5.68662 22.9568 5.92954 23.4426 5.92954 23.9284C5.92954 25.8718 6.17246 29.0297 6.17246 29.0297H7.38704C7.38704 29.0297 7.38704 23.9284 6.65829 21.2563C5.92954 18.3413 5.68662 12.9971 7.38704 9.11043L6.17246 8.6246C6.17246 8.6246 4.71495 11.5396 4.71495 16.1551C4.71495 19.0701 4.95787 20.2847 5.20078 21.4992C4.22911 20.7705 1.55701 18.3413 1.79993 13.24C2.28577 7.41001 7.38704 2.06581 7.38704 2.06581C7.38704 2.06581 16.375 10.5679 8.35872 20.0417L9.33039 20.7705C9.33039 20.7705 12.9742 16.6409 12.9742 12.0254C12.9742 7.41001 11.0308 3.52332 7.38704 0.365387C7.38704 0.365387 1.07118 6.43834 0.585343 13.7259C0.342425 20.5276 5.4437 22.9568 5.4437 22.9568L5.68662 22.4709Z" />
        <path d="M18.3183 16.1551C9.33038 18.8272 9.81622 27.5722 10.0591 29.5156C6.9012 32.6735 5.4437 35.5885 5.4437 35.5885L6.41537 36.0743C15.6462 20.7705 29.9784 23.6855 29.9784 23.6855V22.4709C21.2334 21.4993 15.1604 24.9001 11.0308 28.301C10.7879 25.143 12.2454 17.6126 21.4763 16.8838C32.1647 16.6409 37.2659 22.9568 37.2659 22.9568C31.6788 31.9447 25.363 33.1593 21.4763 33.6452C17.3467 34.3739 12.2454 31.4589 12.2454 31.4589L11.7596 32.4306C11.7596 32.4306 16.1321 35.3456 21.7192 34.8597C33.8651 33.4022 38.4805 22.7138 38.4805 22.7138C37.2659 20.2847 28.278 13.7259 18.3183 16.1551Z" />
    </symbol>

    <symbol id="truckWhite" viewBox="0 0 40 32">
        <path d="M6.84767 12.6328L9.01168 10.9016H9.22808C9.87729 10.9016 10.3101 10.4688 10.3101 9.81963C10.3101 9.38683 10.0937 9.17043 9.87729 8.95403V4.40961H8.79528V8.95403C8.36248 9.17043 8.14608 9.38683 8.14608 9.81963V10.036L5.98207 11.7672L6.84767 12.6328Z" />
        <path d="M39.7406 24.3185V17.3936C39.7406 15.2296 38.875 14.364 38.875 14.364C38.875 14.364 36.711 11.5508 35.4126 9.81961C34.1142 8.08841 32.383 8.08841 32.383 8.08841H25.0254V7.0064C25.0254 5.49159 23.9434 4.40959 22.4285 4.40959H16.1529C14.6381 2.24558 12.0413 0.730774 9.22809 0.730774C4.46727 0.730774 0.788452 4.62599 0.788452 9.38681C0.788452 11.3344 1.43765 13.0656 2.51966 14.5804V24.1021C2.51966 25.6169 3.60166 26.6989 5.11647 26.6989H6.19848V26.9153C6.19848 29.5121 8.36249 31.6761 10.9593 31.6761C13.5561 31.6761 15.7201 29.5121 15.7201 26.9153C15.7201 26.6989 15.7201 26.6989 15.7201 26.6989H22.2121H22.4285C23.0777 26.6989 24.5926 26.6989 26.5402 26.6989V26.9153C26.5402 29.5121 28.7042 31.6761 31.301 31.6761C33.8978 31.6761 36.0618 29.5121 36.0618 26.9153C36.0618 26.6989 36.0618 26.6989 36.0618 26.6989C36.2782 26.6989 36.4946 26.6989 36.4946 26.6989C40.1734 26.9153 39.7406 24.3185 39.7406 24.3185ZM38.6586 16.7444C38.6586 16.7444 38.6586 16.9608 38.6586 17.3936H30.219C29.7862 17.3936 29.3534 16.9608 29.3534 16.528V13.0656C29.3534 12.6328 29.7862 12.2 30.219 12.2H35.8454C36.4946 12.8492 37.1438 13.7148 37.5766 14.364C38.6586 15.6624 38.6586 16.7444 38.6586 16.7444ZM9.22809 2.02918C13.3397 2.02918 16.8021 5.27519 16.8021 9.60321C16.8021 13.9312 13.3397 16.9608 9.22809 16.9608C5.11647 16.9608 1.87046 13.4984 1.87046 9.38681C1.87046 5.27519 5.11647 2.02918 9.22809 2.02918ZM10.7429 30.5941C8.79529 30.5941 7.28048 29.0793 7.28048 27.1317C7.28048 25.1841 8.79529 23.6693 10.7429 23.6693C12.6905 23.6693 14.2053 25.1841 14.2053 27.1317C14.2053 29.0793 12.6905 30.5941 10.7429 30.5941ZM15.0709 25.6169C14.4217 23.8857 12.6905 22.3709 10.7429 22.3709C8.79529 22.3709 7.06408 23.6693 6.41488 25.6169H4.90007C4.25087 25.6169 3.60166 24.9677 3.60166 24.3185V15.6624C5.11647 16.9608 7.06408 17.8264 9.22809 17.8264C13.9889 17.8264 17.6677 13.9312 17.6677 9.38681C17.6677 8.08841 17.2349 6.79 16.8021 5.708H22.4285C23.0777 5.708 23.7269 6.3572 23.7269 7.0064V24.3185C23.7269 24.9677 23.0777 25.6169 22.4285 25.6169H15.0709ZM31.0846 30.5941C29.137 30.5941 27.6222 29.0793 27.6222 27.1317C27.6222 25.1841 29.137 23.6693 31.0846 23.6693C33.0322 23.6693 34.547 25.1841 34.547 27.1317C34.547 29.0793 33.0322 30.5941 31.0846 30.5941ZM36.4946 25.8333H35.629C34.9798 23.8857 33.2486 22.5873 31.301 22.5873C29.137 22.5873 27.4058 23.8857 26.973 25.8333H24.809C25.2418 25.4005 25.4582 24.9677 25.4582 24.3185V8.95401C25.4582 8.95401 30.219 8.95401 32.1666 8.95401C34.1142 8.95401 34.9798 10.2524 34.9798 10.2524C34.9798 10.2524 34.7634 10.6852 35.1962 11.118H30.219C29.137 11.118 28.4878 11.9836 28.4878 12.8492V16.3116C28.4878 17.3936 29.3534 18.0428 30.219 18.0428H38.875C38.875 19.7741 38.875 22.3709 38.875 23.6693C38.6586 26.0497 36.4946 25.8333 36.4946 25.8333Z" />
    </symbol>

    <symbol id="tapeWhite" viewBox="0 0 37 37">
        <path d="M10.5679 7.16711C10.5679 7.65294 11.5396 8.13878 12.9971 8.13878C14.4546 8.13878 15.4263 7.65294 15.4263 7.16711C15.4263 6.68127 14.4546 6.19543 12.9971 6.19543C11.7825 6.19543 10.5679 6.43835 10.5679 7.16711Z" />
        <path d="M36.8031 16.1551C36.8031 13.7259 34.8597 11.7825 32.4306 11.7825H31.4589H10.0821C10.0821 11.7825 4.25207 12.0254 1.57998 7.41001C1.82289 4.00916 4.49499 1.57998 7.89584 1.57998H17.6126C21.2563 1.57998 23.9284 4.49499 23.9284 7.89584V9.11043H25.143V8.13876C25.143 3.76624 21.7422 0.365387 17.3696 0.365387H8.13876C3.76624 0.365387 0.365387 3.76624 0.365387 8.13876V11.2967V11.7825V19.5559C0.365387 23.9284 3.76624 27.3293 8.13876 27.3293H9.83919V26.1147H7.89584C4.25207 26.1147 1.57998 23.1997 1.57998 19.7988V11.7825V11.2967V9.59627C2.30873 10.5679 4.73791 12.9971 9.83919 12.9971C17.1267 12.9971 31.216 12.9971 31.216 12.9971H32.4306C34.131 12.9971 35.3456 14.2117 35.3456 15.9121V17.3696V17.8555C35.3456 19.5559 34.131 20.7705 32.4306 20.7705H32.1876H16.8838C14.4546 20.7705 12.5113 22.7138 12.5113 25.143V31.7018C12.5113 34.131 14.4546 36.0743 16.8838 36.0743H32.4306C34.8597 36.0743 36.8031 34.131 36.8031 31.7018V25.143C36.8031 25.143 36.8031 19.313 36.8031 17.6126C36.8031 17.6126 36.8031 17.6126 36.8031 17.3696V16.1551V16.1551ZM35.3456 32.1876C35.3456 33.8881 34.131 35.1027 32.4306 35.1027H16.6409C14.9405 35.1027 13.7259 33.8881 13.7259 32.1876V25.143C13.7259 23.4426 14.9405 22.228 16.6409 22.228H21.2563V26.3576H22.4709V22.228H28.058H30.2443V26.3576H31.4589V22.228H32.4306C33.6451 22.228 34.8597 21.7422 35.5885 21.0134V32.1876H35.3456Z" />
    </symbol>

    <symbol id="human" viewBox="0 0 68 69">   
        <path d="M62.03 19.665C62.72 18.975 63.41 18.285 63.755 17.595C66.17 14.49 65.825 13.11 63.41 11.04C60.995 8.97 57.2 12.075 57.2 12.075C57.2 12.075 56.855 12.42 56.51 12.765C52.715 9.315 47.885 6.555 42.365 5.175C40.295 2.07 37.19 0 33.74 0C29.945 0 26.84 2.415 24.77 5.52C20.285 6.9 16.145 9.315 12.695 12.42C12.005 12.075 10.625 10.695 8.9 10.35C6.485 10.005 4.07 11.73 3.725 14.145C3.725 15.525 5.105 17.595 6.83 19.665C3.725 24.495 2 30.015 2 36.225C2 53.82 16.49 68.31 34.43 68.31C40.64 68.31 46.85 66.585 51.68 63.48L50.645 61.065C46.16 49.68 47.195 42.435 47.54 38.985C48.575 35.19 52.37 30.015 54.44 27.255C55.82 25.53 57.89 23.805 59.96 21.735C62.72 25.875 64.1 30.705 64.1 36.225C64.1 44.16 60.65 51.405 55.475 56.925L57.545 58.65C63.41 52.785 66.86 44.85 66.86 36.225C66.86 30.015 65.135 24.495 62.03 19.665ZM33.74 2.76C38.225 2.76 41.675 6.9 41.675 12.075C41.675 17.25 38.225 21.39 33.74 21.39C29.255 21.39 25.805 17.595 25.805 12.075C25.805 6.555 29.255 2.76 33.74 2.76ZM33.74 24.15C39.605 24.15 44.435 18.63 44.435 12.075C44.435 10.695 44.09 9.66 43.745 8.28C47.885 9.66 51.335 11.73 54.44 14.49C51.68 16.905 47.54 20.01 45.47 21.39C42.365 23.805 37.19 26.22 33.05 26.22C28.91 26.22 26.84 24.495 23.735 23.115C20.975 21.735 16.49 16.56 14.42 14.49C17.18 12.075 20.285 10.35 23.39 8.97C23.39 10.005 23.045 11.04 23.045 12.075C23.045 18.975 27.875 24.15 33.74 24.15ZM4.76 36.225C4.76 31.05 6.14 26.22 8.555 21.735C9.245 22.425 9.59 22.77 9.59 22.77C9.59 22.77 18.215 32.775 19.94 35.19C21.665 37.605 19.595 39.33 18.215 45.54C17.18 50.37 17.18 56.925 17.18 60.03C9.59 54.51 4.76 45.885 4.76 36.225ZM58.235 19.665C56.855 21.045 52.025 25.185 47.885 31.74C43.745 38.295 44.435 43.47 44.78 47.265C45.125 51.06 46.16 54.51 46.505 55.89C46.85 56.925 48.23 60.72 48.575 61.755C44.435 63.825 39.605 65.205 34.775 65.205C29.255 65.205 24.425 63.825 19.94 61.41C19.94 49.68 20.63 47.955 20.975 46.23C20.975 44.505 22.01 41.055 23.045 38.295C23.735 35.88 22.7 33.81 21.665 32.775C20.63 31.74 10.625 19.665 8.9 17.25C6.83 14.835 6.485 13.8 8.21 13.11C9.935 12.075 14.42 17.595 16.49 20.01C18.215 22.425 26.15 28.98 33.395 28.635C40.64 28.29 45.815 24.495 47.885 23.115C49.61 21.735 58.58 14.49 59.96 13.455C61.34 12.42 63.065 13.455 62.72 14.49C62.375 15.525 59.615 18.285 58.235 19.665Z"/>
    </symbol>

    <symbol id="smile" viewBox="0 0 64 64"> 
        <path d="M32 0C14.4314 0 0 14.4314 0 32C0 49.5686 14.4314 64 32 64C49.5686 64 64 49.5686 64 32C64 14.4314 49.5686 0 32 0ZM32 61.4902C15.6863 61.4902 2.5098 48.3137 2.5098 32C2.5098 15.6863 15.6863 2.5098 32 2.5098C48.3137 2.5098 61.4902 15.6863 61.4902 32C61.4902 48.3137 48.3137 61.4902 32 61.4902Z" />
        <path d="M32 48.6275C21.0196 48.6275 14.4314 38.902 14.4314 38.902L12.2353 40.4706C21.0196 51.7647 32 51.451 32 51.451C32 51.451 42.9804 52.0785 51.7647 40.4706L49.5686 38.902C49.5686 38.902 42.9804 48.6275 32 48.6275Z" />
        <path d="M21.3333 35.451C28.8627 32 30.1176 27.6078 30.1176 25.4118C30.1176 22.902 28.549 20.0784 25.7255 20.0784C22.5882 20.0784 21.3333 21.6471 21.3333 21.6471C21.3333 21.6471 20.0784 20.0784 16.9412 20.0784C14.1176 20.0784 12.549 23.2157 12.549 25.4118C12.549 27.6078 13.8039 32 21.3333 35.451ZM21.3333 24.7843C22.902 22.2745 27.2941 21.9608 27.6078 25.098C27.6078 29.4902 21.3333 32.6275 21.3333 32.6275C21.3333 32.6275 15.0588 29.4902 15.0588 25.098C15.3725 21.9608 19.7647 22.2745 21.3333 24.7843Z" />
        <path d="M42.6667 35.451C50.1961 32 51.451 27.6078 51.451 25.7255C51.451 23.2157 49.8824 20.3922 47.0588 20.3922C43.9216 20.3922 42.6667 21.9608 42.6667 21.9608C42.6667 21.9608 41.4118 20.3922 38.2745 20.3922C35.451 20.3922 33.8824 23.5294 33.8824 25.7255C33.8824 27.6078 35.1373 32 42.6667 35.451ZM42.6667 24.7843C44.2353 22.2745 48.6274 21.9608 48.9412 25.098C48.9412 29.4902 42.6667 32.6274 42.6667 32.6274C42.6667 32.6274 36.3922 29.4902 36.3922 25.098C36.7059 21.9608 41.098 22.2745 42.6667 24.7843Z" />
    </symbol>

    <symbol id="arm" viewBox="0 0 68 68">
        <path d="M51.9372 15.4497C45.9103 15.4497 38.1614 19.7547 38.4484 28.6515C38.4484 28.6515 26.6816 24.9206 23.2377 37.2614C23.2377 37.2614 21.2287 32.9565 18.6457 30.9475C15.7758 28.9385 12.3318 23.7726 12.0448 21.1896C12.3318 19.7547 12.6188 19.7547 13.1928 19.4677C13.4798 19.4677 13.4798 21.7636 16.0628 22.0506C18.3587 21.7636 18.9327 21.1896 19.7937 20.0417L22.3767 17.1717C22.3767 17.1717 24.9596 13.7278 22.6637 12.0058C20.6547 9.99681 16.9238 6.26587 12.3318 7.12686C9.74888 7.70085 7.73991 9.70982 7.73991 9.70982L4.29596 12.8668C4.29596 12.8668 2 15.1627 2 19.7547C2 23.7726 2.86099 30.3735 2.86099 30.3735C2.86099 30.3735 3.72197 35.5394 4.00897 37.2614C4.29596 38.9834 6.59193 49.0282 12.0448 54.4811C15.4888 58.4991 17.4978 60.221 19.2197 60.508C22.0897 60.508 23.5247 58.7861 25.8206 58.7861C28.1166 58.7861 30.4126 60.508 35.2915 60.508C40.1704 60.508 51.0762 57.6381 55.6682 43.5753C59.9731 41.8533 66 38.6964 66 29.2255C66 19.7547 57.6771 15.4497 51.9372 15.4497ZM53.9462 41.8533C50.7892 54.4811 40.7444 57.9251 35.8655 58.4991C31.2735 58.4991 28.6906 56.7771 25.2466 56.7771C23.2377 56.7771 20.3677 58.4991 19.5067 58.4991C18.6457 58.4991 16.3498 56.4901 13.4798 53.3331C10.6099 50.1762 9.46188 47.3062 8.3139 45.0103C7.16592 42.7143 5.15695 33.5304 5.15695 33.5304C5.15695 33.5304 4.29596 24.3466 4.29596 20.3287C4.29596 16.5977 6.01794 14.3017 6.01794 14.3017C6.01794 14.3017 8.3139 12.2928 10.6099 10.2838C13.1928 8.27484 16.3498 9.70982 16.3498 9.70982C16.3498 9.70982 19.5067 11.7188 20.6547 12.8668C22.0897 14.0148 20.6547 15.1627 20.6547 15.1627C20.6547 15.1627 17.4978 19.1807 16.3498 19.4677C14.9148 19.7547 14.6278 16.3107 14.6278 16.3107C13.1928 16.8847 10.8969 17.4587 10.0359 20.0417C9.17489 23.1986 13.7668 29.7995 17.2108 32.9565C20.3677 36.1134 22.3767 41.2793 22.3767 41.2793L24.9596 40.4183C24.9596 40.4183 24.6726 34.3914 29.8386 31.2345C35.5785 28.0775 40.7444 32.3825 40.7444 32.3825C39.0224 18.0327 51.6502 17.7457 52.5112 17.7457C53.3722 17.7457 63.417 18.6067 64.278 28.6515C63.704 40.1313 53.9462 41.8533 53.9462 41.8533Z" />
    </symbol>

    <symbol id="arrowLeft" viewBox="0 0 24 40">
        <path d="M19 34L6.91422 21.9142C6.13317 21.1332 6.13317 19.8668 6.91421 19.0858L19 7" stroke-width="2" stroke-linecap="round"/>
    </symbol>   

    <symbol id="arrowRight" viewBox="0 0 24 40">
        <path d="M5 6L17.0858 18.0858C17.8668 18.8668 17.8668 20.1332 17.0858 20.9142L5 33" stroke-width="2" stroke-linecap="round"/>
    </symbol>   
    
    <symbol id="product" viewBox="0 0 46 46">
        <path d="M44.6903 7.1641L38.8069 1.27893C37.9858 0.457505 36.8943 0 35.7301 0C34.5659 0 33.4641 0.457505 32.6429 1.27893C31.7802 2.14195 31.3436 3.29611 31.3644 4.46067C30.2002 4.43987 29.0464 4.87658 28.1837 5.7396C27.3209 6.60262 26.8843 7.75678 26.9051 8.92134C25.7409 8.89015 24.5871 9.33725 23.7244 10.2003C22.8616 11.0633 22.425 12.2175 22.4458 13.382C21.2816 13.3612 20.1278 13.7979 19.2651 14.6609L4.71265 29.2179L0.315736 33.6162C0.191001 33.7306 0.0974494 33.8865 0.0454764 34.0529C0.0454764 34.0737 0.0350818 34.0841 0.0350818 34.1049C-0.0272858 34.344 -0.00649662 34.5832 0.0974494 34.7911C0.118239 34.8431 0.149422 34.8847 0.170212 34.9367C0.305341 35.1343 0.502839 35.2902 0.752309 35.363L4.31766 36.382L5.33633 39.9485C5.42988 40.2916 5.70014 40.5619 6.05355 40.6659L9.6189 41.6849L10.6376 45.2514C10.7103 45.5009 10.8663 45.6985 11.0741 45.8336C11.1157 45.8648 11.1573 45.8856 11.2093 45.9064C11.3444 45.9688 11.4899 46 11.6355 46C11.729 46 11.8226 45.9896 11.9265 45.9584C12.1136 45.9064 12.2695 45.8128 12.3943 45.6777L16.7912 41.2794L23.1007 34.9679C23.2254 35.0927 23.371 35.1759 23.5373 35.2278C23.9011 35.3318 24.2961 35.2382 24.5663 34.9679L32.0816 27.4503C32.487 27.0448 32.487 26.3897 32.0816 25.9842L31.9881 25.8906C32.4247 25.1731 32.6325 24.3517 32.6222 23.5303C33.7863 23.5511 34.9401 23.1144 35.8029 22.2514C36.6656 21.3883 37.1022 20.2342 37.0814 19.0696C38.2456 19.1008 39.3994 18.6537 40.2622 17.7907C41.1249 16.9277 41.5615 15.7735 41.5407 14.609C42.7049 14.6297 43.8587 14.193 44.7215 13.33C45.5426 12.5086 46 11.4064 46 10.2419C45.9688 9.0877 45.5218 7.98553 44.6903 7.1641ZM12.1344 42.9638L11.4484 40.5411C11.3548 40.198 11.0845 39.9277 10.7311 39.8237L7.16578 38.8151L6.14711 35.2486C6.05356 34.9055 5.7833 34.6352 5.42988 34.5312L3.00794 33.8449L5.42988 31.4222L14.5459 40.5411L12.1344 42.9638ZM24.4208 32.1501L21.9781 20.8476C21.8533 20.2862 21.3024 19.9326 20.7411 20.047C20.1798 20.1718 19.8264 20.7229 19.9407 21.2844L22.4043 32.6908L16.022 39.075L6.90591 29.9561L19.9927 16.8653L29.8468 26.7224L24.4208 32.1501ZM43.2246 11.8639C42.5282 12.5606 41.468 12.7373 40.5948 12.2902C40.1998 12.0927 39.7113 12.1655 39.3994 12.4878C39.0876 12.8101 39.0044 13.2884 39.2019 13.6835C39.6385 14.5674 39.4618 15.6279 38.7758 16.3142C38.0897 17.0005 37.0191 17.1876 36.1459 16.7405C35.7509 16.5429 35.2624 16.6157 34.9505 16.9381C34.6387 17.25 34.5555 17.7387 34.753 18.1338C35.1896 19.0176 35.0129 20.0782 34.3269 20.7645C33.6304 21.4611 32.5702 21.6379 31.697 21.1908C31.302 20.9932 30.8135 21.066 30.5017 21.3883C30.1898 21.7003 30.1067 22.189 30.3042 22.5841C30.5744 23.1352 30.616 23.7486 30.4289 24.3101L21.6662 15.5448C22.2276 15.368 22.8408 15.3992 23.3917 15.6695C23.7867 15.8671 24.2753 15.7943 24.5871 15.472C24.899 15.1496 24.9821 14.6713 24.7846 14.2762C24.348 13.3924 24.5248 12.3318 25.2108 11.6456C25.8968 10.9593 26.9675 10.7722 27.8406 11.2193C28.2356 11.4168 28.7242 11.344 29.036 11.0217C29.3479 10.7098 29.431 10.2211 29.2335 9.82595C28.7969 8.94213 28.9736 7.88155 29.6597 7.1953C30.3561 6.49864 31.4164 6.32188 32.2895 6.76899C32.6845 6.96655 33.1731 6.89376 33.4849 6.57143C33.7967 6.25949 33.8799 5.7708 33.6824 5.37568C33.2458 4.49186 33.4225 3.43128 34.1086 2.74503C34.5452 2.30832 35.1169 2.07957 35.7301 2.07957C36.3434 2.07957 36.9151 2.31872 37.3517 2.74503L43.2246 8.6302C43.6612 9.06691 43.8899 9.63879 43.8899 10.2523C43.8899 10.8553 43.6508 11.4376 43.2246 11.8639Z"/>
    </symbol>

    <symbol id="playBig" viewBox="0 0 76 110">        
        <path d="M72.0144 61.7084L13.8553 108.044C8.29509 112.454 0.114471 108.491 0.114471 101.397V8.7261C0.114471 1.63197 8.29509 -2.33051 13.8553 2.07935L72.0144 48.4149C76.2325 51.8022 76.2325 58.3211 72.0144 61.7084Z" />
    </symbol>
    
    <symbol id="play" viewBox="0 0 12 17">        
        <path d="M11.407 9.42903L2.94746 16.1687C2.1387 16.8102 0.948792 16.2338 0.948792 15.2019V1.72252C0.948792 0.690645 2.1387 0.114283 2.94746 0.755718L11.407 7.49543C12.0205 7.98813 12.0205 8.93633 11.407 9.42903Z"/>
    </symbol>

    <symbol id="pause" viewBox="0 0 24 24">        
        <path d="M0 0h24v24H0z fill=none"/>
        <path d="M6 19h4V5H6v14zm8-14v14h4V5h-4z"/>
    </symbol>

    <symbol id="volume" viewBox="0 0 14 17">        
        <path d="M11.1882 0.765597L5.01572 5.67385C4.56951 5.43215 4.05824 5.30201 3.51907 5.30201C1.77144 5.30201 0.358459 6.71499 0.358459 8.46262C0.358459 10.2103 1.77144 11.6232 3.51907 11.6232C4.05824 11.6232 4.56951 11.4838 5.01572 11.2514L11.1882 16.1689C11.997 16.8104 13.1868 16.234 13.1868 15.2022V1.72308C13.1868 0.69123 11.997 0.114883 11.1882 0.765597Z"/>
    </symbol>

    <symbol id="cross" viewBox="0 0 20 20">        
        <path d="M13.5556 10L19.3333 4.22222C20.2222 3.33333 20.2222 2 19.3333 1.22222L18.8889 0.777778C18 -0.111111 16.6667 -0.111111 15.8889 0.777778L10 6.44445L4.22222 0.666667C3.33333 -0.222222 2 -0.222222 1.11111 0.666667L0.666667 1.11111C-0.222222 2 -0.222222 3.33333 0.666667 4.11111L6.44445 10L0.666667 15.7778C-0.222222 16.6667 -0.222222 18 0.666667 18.7778L1.11111 19.3333C2 20.2222 3.33333 20.2222 4.11111 19.3333L10 13.5556L15.7778 19.3333C16.6667 20.2222 18 20.2222 18.7778 19.3333L19.2222 18.8889C20.1111 18 20.1111 16.6667 19.2222 15.8889L13.5556 10Z" />
    </symbol>

    <symbol id="social-vk" viewBox="0 0 20 12"> 
        <path d="M19.891 10.6049C19.891 10.5504 19.8365 10.4959 19.8365 10.4959C19.5095 9.89646 18.8011 9.07902 17.8202 8.20708C17.3842 7.77111 17.1117 7.49864 17.0027 7.33515C16.7847 7.06267 16.7302 6.79019 16.8392 6.51771C16.9482 6.29973 17.2207 5.86376 17.7657 5.15531C18.0381 4.77384 18.2561 4.50136 18.4196 4.28338C19.6185 2.703 20.1635 1.66757 20 1.23161L19.9455 1.12261C19.891 0.959126 19.782 0.90463 19.6185 0.850135C19.455 0.795639 19.2371 0.795639 18.9646 0.850135H15.9673C15.9128 0.850135 15.8583 0.850135 15.7493 0.850135C15.6403 0.850135 15.6403 0.904631 15.6403 0.904631H15.5858L15.5313 0.959127C15.4768 0.959127 15.4768 1.01362 15.4223 1.06812C15.3678 1.12261 15.3678 1.17711 15.3134 1.23161C14.9864 2.04904 14.6049 2.86648 14.2234 3.57493C13.951 4.0109 13.733 4.39237 13.515 4.71934C13.297 5.04632 13.1335 5.2643 12.97 5.42779C12.8065 5.59128 12.6975 5.70027 12.5886 5.80926C12.4796 5.91825 12.3706 5.91825 12.3161 5.91825C12.2616 5.91825 12.2071 5.86376 12.1526 5.86376C12.0436 5.80926 11.9891 5.70027 11.9346 5.59128C11.8801 5.48229 11.8256 5.3733 11.8256 5.20981C11.8256 5.04632 11.7711 4.88283 11.7711 4.77384C11.7711 4.66485 11.7711 4.50136 11.7711 4.28338C11.7711 4.06539 11.7711 3.90191 11.7711 3.84741C11.7711 3.57493 11.7711 3.30245 11.7711 2.97548C11.7711 2.6485 11.7711 2.43052 11.7711 2.26703C11.7711 2.10354 11.7711 1.88556 11.7711 1.66757C11.7711 1.44959 11.7711 1.2861 11.7166 1.17711C11.7166 1.06812 11.6621 0.959126 11.6076 0.850135C11.5531 0.741143 11.4986 0.632151 11.3896 0.577655C11.2807 0.523159 11.1717 0.468664 11.0627 0.414168C10.6812 0.305176 10.2452 0.305176 9.64578 0.305176C8.33788 0.305176 7.52044 0.359671 7.13896 0.577655C6.97548 0.632151 6.86648 0.741143 6.75749 0.904631C6.6485 1.06812 6.59401 1.12261 6.703 1.17711C7.13896 1.23161 7.41144 1.39509 7.57493 1.61308L7.62943 1.72207C7.68392 1.83106 7.73842 1.99455 7.79292 2.21253C7.84741 2.43052 7.84741 2.703 7.90191 2.97548C7.9564 3.46594 7.9564 3.90191 7.90191 4.28338C7.84741 4.66485 7.84741 4.93733 7.79292 5.10082C7.73842 5.3188 7.73842 5.48229 7.62943 5.59128C7.57493 5.70027 7.52044 5.80926 7.52044 5.80926C7.52044 5.86376 7.46594 5.86376 7.46594 5.86376C7.35695 5.91825 7.30245 5.91825 7.19346 5.91825C7.08447 5.91825 6.97548 5.86376 6.86649 5.75477C6.703 5.64577 6.59401 5.53678 6.43052 5.3733C6.26703 5.20981 6.10354 4.99182 5.94005 4.66485C5.77657 4.33787 5.55858 4.0109 5.3406 3.57493L5.17711 3.24795C5.06812 3.02997 4.90463 2.75749 4.74114 2.37602C4.57766 1.99455 4.41417 1.66757 4.25068 1.2861C4.19619 1.17711 4.08719 1.06812 3.9782 0.959127H3.92371C3.86921 0.904631 3.81471 0.90463 3.76022 0.850135C3.70572 0.850135 3.59673 0.795639 3.54223 0.795639H0.708447C0.381471 0.795639 0.163488 0.904631 0.0544959 1.01362V1.06812C0 1.12261 0 1.17711 0 1.23161C0 1.2861 0 1.39509 0.0544959 1.50409C0.490463 2.48501 0.92643 3.41144 1.41689 4.33787C1.90736 5.2643 2.34332 5.97275 2.6703 6.51771C3.05177 7.06267 3.37875 7.60763 3.76022 8.09809C4.14169 8.58855 4.35967 8.91553 4.52316 9.02452C4.63215 9.18801 4.74114 9.24251 4.79564 9.3515L5.06812 9.62398C5.23161 9.78746 5.50409 10.0054 5.77657 10.2234C6.10354 10.4414 6.43052 10.6594 6.86649 10.9319C7.24796 11.1499 7.73842 11.3678 8.22888 11.4768C8.77384 11.6403 9.26431 11.6948 9.75477 11.6403H10.9537C11.1717 11.6403 11.3896 11.5313 11.4986 11.4223L11.5531 11.3678C11.6076 11.3133 11.6076 11.2589 11.6076 11.1499C11.6076 11.0409 11.6621 10.9864 11.6621 10.8774C11.6621 10.6049 11.6621 10.3324 11.7166 10.0599C11.7711 9.84196 11.8256 9.62398 11.8801 9.51498C11.9346 9.40599 12.0436 9.297 12.0981 9.18801C12.2071 9.07902 12.2616 9.07902 12.2616 9.02452C12.3161 9.02452 12.3161 8.97003 12.3706 8.97003C12.5341 8.91553 12.752 8.97003 12.97 9.13351C13.188 9.297 13.406 9.51499 13.624 9.73297C13.842 9.95095 14.0599 10.2234 14.3324 10.5504C14.6049 10.8229 14.8774 11.0954 15.0409 11.2044L15.2589 11.3133C15.4223 11.4223 15.5858 11.4768 15.8038 11.5313C16.0218 11.5858 16.2398 11.6403 16.4033 11.5858L19.0736 11.5313C19.346 11.5313 19.564 11.4768 19.673 11.4223C19.8365 11.3133 19.891 11.2589 19.9455 11.1499C20 11.0409 20 10.9319 19.9455 10.7684C19.9455 10.7684 19.9455 10.6594 19.891 10.6049Z"/>
    </symbol>

    <symbol id="social-fb" viewBox="0 0 20 20"> 
        <path d="M20 18.9101C20 19.5095 19.5095 20 18.9101 20H13.7875V12.2616H16.4033L16.7847 9.26431H13.7875V7.35695C13.7875 6.48501 14.0054 5.88556 15.2589 5.88556H16.8392V3.16076C16.5668 3.10627 15.6403 3.05177 14.4959 3.05177C12.2071 3.05177 10.6267 4.46866 10.6267 7.02997V9.26431H8.0109V12.2616H10.6267V20H1.08992C0.490463 20 0 19.5095 0 18.9101V1.08992C0 0.490463 0.490463 0 1.08992 0H18.9101C19.5095 0 20 0.490463 20 1.08992V18.9101Z"/>
    </symbol>

    <symbol id="social-inst" viewBox="0 0 20 20"> 
        <path d="M17.6022 0H2.39782C1.08992 0 0 1.03542 0 2.34332V17.6567C0 18.9646 1.08992 20 2.39782 20H17.6022C18.9101 20 20 18.9646 20 17.6567V2.34332C20 1.03542 18.9101 0 17.6022 0ZM14.3869 3.10627C14.3869 2.77929 14.6594 2.50681 14.9864 2.50681H16.8937C17.2207 2.50681 17.4932 2.77929 17.4932 3.10627V4.95913C17.4932 5.2861 17.2207 5.55858 16.8937 5.55858H15.0409C14.7139 5.55858 14.4414 5.2861 14.4414 4.95913L14.3869 3.10627ZM10.0272 6.15804C12.1526 6.15804 13.8965 7.84741 13.8965 9.97275C13.8965 12.0981 12.1526 13.7875 10.0272 13.7875C7.90191 13.7875 6.15804 12.0981 6.15804 9.97275C6.15804 7.90191 7.90191 6.15804 10.0272 6.15804ZM18.0926 17.4932C18.0926 17.8202 17.8202 18.0926 17.4932 18.0926H2.50681C2.17984 18.0926 1.90736 17.8202 1.90736 17.4932V8.11989H4.35967C4.0327 8.61035 3.92371 9.48229 3.92371 10.0272C3.92371 13.3515 6.6485 16.0763 10.0272 16.0763C13.406 16.0763 16.1308 13.3515 16.1308 10.0272C16.1308 9.48229 16.0763 8.61035 15.6403 8.11989H18.1471L18.0926 17.4932Z"/>
    </symbol>
   
    <symbol id="social-tw" viewBox="0 0 20 18"> 
        <path d="M19.455 1.01613C18.6376 1.5066 17.7657 1.83357 16.8392 2.05155C16.0763 1.23412 15.0409 0.743652 13.842 0.743652C11.5531 0.743652 9.75477 2.65101 9.75477 4.93984C9.75477 5.26681 9.80926 5.59379 9.86376 5.92076C6.43052 5.70278 3.43324 4.01341 1.41689 1.4521C1.08992 2.05155 0.871935 2.8145 0.871935 3.57744C0.871935 5.04883 1.58038 6.30224 2.7248 7.06518C2.07084 7.06518 1.41689 6.84719 0.871935 6.52022V6.62921C0.871935 8.64556 2.28883 10.3894 4.14169 10.7709C3.81471 10.8799 3.43324 10.9344 3.05177 10.9344C2.77929 10.9344 2.50681 10.9344 2.28883 10.8799C2.83379 12.5693 4.30518 13.7682 6.10354 13.8227C4.68665 14.9671 2.94278 15.621 0.980926 15.621C0.653951 15.621 0.326975 15.621 0 15.5665C1.79837 16.7654 3.9782 17.4739 6.26703 17.4739C13.842 17.4739 17.9292 11.0434 17.9292 5.4848C17.9292 5.32131 17.9292 5.10332 17.9292 4.93984C18.7466 4.34038 19.455 3.63194 20 2.76C19.2916 3.08698 18.4741 3.30496 17.6567 3.41395C18.4741 2.8145 19.1281 1.99706 19.455 1.01613Z"/>
    </symbol>
    
    <symbol id="grape" viewBox="0 0 19 21"> 
            <path d="M16.443 9.71387C18.6035 8.22503 18.0963 4.51466 15.5084 3.80076C15.3252 3.7491 14.5973 3.77728 14.508 3.69274C14.3624 3.55184 14.2732 2.88022 14.1605 2.67356C13.8364 2.07708 13.3198 1.59802 12.7139 1.30683C11.4458 0.696262 9.91467 0.959276 8.97064 2.01603C8.05948 0.785499 6.47201 0.409765 5.10058 1.072C4.49001 1.36319 3.96398 1.83755 3.62582 2.41994C3.45205 2.72053 3.32524 3.0446 3.25479 3.38746C3.17494 3.79607 3.27827 4.1718 3.24539 4.57102C3.22191 4.84812 3.28766 4.79176 2.98708 4.90448C2.818 4.97023 2.65361 5.05008 2.49393 5.14401C2.14637 5.35536 1.84578 5.63247 1.60156 5.95654C1.13659 6.5765 0.897057 7.36084 0.92054 8.13579C0.929934 8.48804 1.00038 8.84029 1.1225 9.17376C1.19295 9.36632 1.28688 9.55419 1.39021 9.73266C1.43717 9.80781 1.5452 9.92053 1.56868 9.99568C1.63913 10.2117 1.63913 10.0379 1.5358 10.2446C1.33854 10.6297 0.9769 10.9068 0.803123 11.3295C0.62465 11.7569 0.54011 12.2172 0.544806 12.6822C0.549503 13.119 0.63874 13.5511 0.80782 13.9503C0.887664 14.1428 1.01917 14.3072 1.10371 14.4951C1.17416 14.6501 1.23052 14.636 1.19295 14.7675C1.17416 14.8286 0.911147 15.0211 0.873574 15.0634C0.300579 15.6974 -0.00470432 16.5334 -7.64548e-06 17.3741C0.0140824 19.1918 1.50762 20.7135 3.34872 20.6195C4.17533 20.5773 4.97377 20.2109 5.54207 19.6051C5.62661 19.5158 5.85674 19.079 5.95537 19.0462C6.03522 19.0227 6.44383 19.234 6.52837 19.2575C6.96046 19.3702 7.41604 19.3843 7.85753 19.3045C8.67944 19.1589 9.43091 18.6892 9.91937 18.0129C10.0556 17.8297 10.1307 17.5996 10.2622 17.4211C10.2951 17.3788 10.3186 17.2004 10.3609 17.1769C10.3796 17.1675 10.6661 17.2614 10.7272 17.2708C11.2063 17.3648 11.7088 17.3413 12.1832 17.2098C12.681 17.0689 13.146 16.8059 13.5264 16.4536C13.6297 16.355 13.9444 15.8477 14.0571 15.8055C14.1839 15.7632 14.6113 15.9511 14.7616 15.9698C15.7573 16.0779 16.7671 15.6833 17.4528 14.9601C18.9323 13.382 18.4203 10.6391 16.443 9.71387C16.5699 9.62464 16.6967 9.5401 16.8235 9.45086C16.6967 9.5401 16.5699 9.62464 16.443 9.71387ZM13.8035 6.35106C13.9209 6.21485 14.0383 6.05517 14.1182 5.89548C14.1464 5.84851 14.1699 5.80155 14.1933 5.74988C14.3061 5.51975 14.4 5.28491 14.4564 5.03599C14.5362 4.69313 14.4657 4.64616 14.8039 4.61329C15.128 4.58511 15.5178 4.74479 15.7855 4.90448C16.3256 5.22855 16.6779 5.79215 16.8188 6.39802C16.955 6.9898 16.8939 7.63794 16.6121 8.17806C16.4618 8.46926 16.2458 8.72288 15.9828 8.91544C15.8935 8.98119 15.1092 9.35693 15.1092 9.27239C15.1092 9.2583 15.1092 9.23951 15.1092 9.22542C15.1139 9.1174 15.1092 8.99998 15.0998 8.89196C15.0998 8.87317 15.0951 8.85908 15.0951 8.84029C15.0951 8.84029 15.0951 8.8356 15.0951 8.8309C14.9965 7.87278 14.508 6.9945 13.7143 6.44029C13.7472 6.41681 13.7753 6.38393 13.8035 6.35106C13.8176 6.33697 13.7753 6.38393 13.8035 6.35106C13.9209 6.21485 13.7753 6.38393 13.8035 6.35106ZM13.7378 7.74597C13.7472 7.75536 13.7519 7.76475 13.7565 7.77415C13.874 7.93853 13.9632 8.11701 14.0383 8.30018C14.0477 8.32366 14.0524 8.34245 14.0618 8.36593C14.0665 8.37532 14.0665 8.38472 14.0712 8.39411C14.0759 8.4082 14.0806 8.42229 14.0853 8.43638C14.137 8.58667 14.1605 8.74636 14.1839 8.90135C14.1839 8.92483 14.1886 8.94362 14.1886 8.9671C14.1886 8.9765 14.1886 8.99059 14.1933 8.99998C14.1933 9.02346 14.198 9.04225 14.198 9.06573C14.198 9.07043 14.198 9.07513 14.198 9.07982C14.2074 9.28178 14.2027 9.52131 14.137 9.71387C14.1323 9.73266 14.1323 9.75145 14.1276 9.76554C13.7941 10.5734 13.2775 11.292 12.371 11.4845C11.8074 11.6066 11.1264 11.5033 10.6567 11.1511C10.6192 11.1276 10.5816 11.0994 10.5487 11.0759C9.5859 10.3432 9.40743 9.02346 9.98042 7.9902C10.5722 6.91935 11.6524 6.60468 12.7702 6.98041C12.7937 6.9898 12.8172 7.00389 12.8407 7.01329C12.8642 7.02268 12.8877 7.03677 12.9111 7.04616C12.9158 7.04616 12.9205 7.05086 12.9252 7.05086C12.991 7.08374 13.0567 7.12131 13.1178 7.16358C13.1742 7.20115 13.2305 7.23873 13.2869 7.281C13.3385 7.31857 13.3855 7.36084 13.4325 7.40781C13.4419 7.4172 13.4513 7.4219 13.456 7.43129C13.5217 7.48295 13.7143 7.71779 13.7378 7.74597C13.7425 7.75536 13.7096 7.7084 13.7378 7.74597ZM8.81565 8.25321C8.78747 8.35654 8.76398 8.46456 8.7452 8.56789C8.07827 8.58667 7.49119 8.29078 7.03091 7.82581C6.74441 7.51113 6.54715 7.12601 6.45792 6.708C6.02113 5.56202 7.08257 4.1718 8.14872 3.90409C8.02661 5.07356 8.56672 6.27121 9.52954 6.95223C9.19608 7.32796 8.95185 7.77884 8.81565 8.25791C8.83443 8.19215 8.85322 8.1264 8.87201 8.05595C8.85322 8.1264 8.83443 8.18746 8.81565 8.25321C8.78747 8.35654 8.95185 7.76945 8.81565 8.25321ZM9.49667 11.3436C8.96594 11.7194 8.48688 12.3017 8.30371 12.9358C8.22856 12.917 8.15342 12.8982 8.07827 12.87C7.86692 12.7996 7.63678 12.7855 7.41604 12.7808C7.3268 12.7808 7.23757 12.7808 7.14833 12.7855C7.07788 12.7996 7.01213 12.8043 6.94168 12.8043C6.88531 12.809 6.82895 12.8137 6.77729 12.8278C6.77259 12.8278 6.7679 12.8278 6.7679 12.8278C6.74441 12.8372 6.72093 12.8419 6.69745 12.8419C5.93189 12.4239 5.42465 11.5597 5.46692 10.6814V10.6767C5.46692 10.6532 5.46692 10.6297 5.47162 10.6062C5.47162 10.6015 5.47162 10.6015 5.47162 10.5968C5.47162 10.5781 5.47631 10.5593 5.47631 10.5452V10.5405C5.48101 10.4747 5.48571 10.3855 5.50449 10.3197C5.51858 10.2305 5.54207 10.1413 5.56555 10.0567C5.56555 10.052 5.56555 10.052 5.57025 10.0473C5.57025 10.0426 5.57494 10.0379 5.57494 10.0332C5.62191 9.87356 5.69236 9.73266 5.76281 9.58237C5.80038 9.51661 5.83796 9.45086 5.88492 9.38511C6.00704 9.19724 6.16203 9.02816 6.3405 8.88726C6.39216 8.8356 6.44383 8.79333 6.50958 8.76045C6.52837 8.74636 6.54715 8.73227 6.56594 8.72288C6.58003 8.71348 6.59412 8.70409 6.60821 8.69939C7.1859 9.21133 7.92328 9.49313 8.69353 9.49313H8.70762C8.72171 9.6716 8.7405 9.92992 8.82504 10.0943C8.83443 10.1272 8.84383 10.1601 8.85792 10.1976C8.85792 10.2023 8.86261 10.2023 8.86261 10.207C8.87201 10.2399 8.8861 10.2728 8.89549 10.3104C9.027 10.6861 9.23365 11.0383 9.49667 11.3436ZM9.33698 3.09626C9.33698 3.09157 9.34167 3.08687 9.34167 3.08217V3.07748C10.4595 1.02973 13.6016 1.94558 13.6297 4.21407C13.6297 4.21877 13.6297 4.22346 13.6297 4.22816V4.23286C13.6297 4.77767 13.4419 5.3037 13.1131 5.7311C13.1084 5.73579 13.1084 5.73579 13.1037 5.74049C13.0286 5.83912 12.9393 5.92836 12.8501 6.0129C12.2301 5.81094 11.3753 5.77337 10.7742 6.07395C10.6849 6.10683 10.3421 6.32757 10.2669 6.32288C10.1448 6.31818 9.95694 6.11622 9.8724 6.04577C9.59999 5.81564 9.38395 5.51975 9.24304 5.19098C9.24304 5.18628 9.23835 5.18158 9.23835 5.18158C8.95655 4.51466 9.0223 3.65986 9.31819 3.11505C9.29471 3.17141 9.29941 3.16202 9.33698 3.09626C9.33698 3.09157 9.26653 3.22777 9.33698 3.09626ZM6.41095 1.64029C7.25166 1.64029 8.02191 2.11935 8.42113 2.87082C8.41643 2.88022 8.41643 2.88491 8.41173 2.89431C8.40704 2.9037 8.40234 2.91779 8.39764 2.92718C6.7585 3.08217 5.50449 4.54753 5.48101 6.17258C5.29314 6.09274 5.10997 5.97532 4.95498 5.83912C4.9362 5.82503 4.92211 5.81094 4.90332 5.79685C3.21252 4.52405 4.40547 1.64029 6.41095 1.64029ZM3.63991 5.67943C3.64461 5.68413 3.64461 5.68883 3.64931 5.69352C3.70567 5.79215 3.79021 5.94714 3.87475 6.03168C3.88884 6.05047 3.89823 6.06456 3.91232 6.08335C3.92171 6.09274 3.93111 6.10683 3.9405 6.11622C3.95459 6.13031 3.96398 6.1491 3.97807 6.16319C4.227 6.46378 4.55577 6.75027 4.91271 6.92405C5.10058 7.02268 5.48101 7.06965 5.62661 7.20115C5.7769 7.33266 5.87553 7.80702 5.99295 7.99489C5.83326 8.09352 5.67827 8.22033 5.54676 8.35654C5.53737 8.36123 5.53267 8.37063 5.52328 8.37532C5.50919 8.38941 5.4998 8.39881 5.48571 8.4129C5.26966 8.62894 5.09119 8.87787 4.94089 9.15027C4.94089 9.15497 4.9362 9.15967 4.9362 9.15967C4.88923 9.19724 4.86575 9.24421 4.86575 9.29587C4.85635 9.31935 4.84226 9.34284 4.83287 9.36632C4.83287 9.36632 4.83287 9.36632 4.83287 9.37102C4.79999 9.44147 4.77181 9.51661 4.74363 9.59176C4.72015 9.65282 4.69197 9.71857 4.68258 9.78432C4.67788 9.80311 4.67318 9.8219 4.66849 9.84068C4.66379 9.85947 4.65909 9.87826 4.6544 9.89705C4.6544 9.90174 4.6497 9.91113 4.6497 9.91583C4.645 9.92992 4.64031 9.94401 4.64031 9.9581C4.64031 9.9628 4.64031 9.9628 4.64031 9.96749C4.61682 10.0708 4.60743 10.1788 4.57925 10.2822C4.57925 10.2869 4.57925 10.2869 4.57925 10.2869V10.2916C4.57925 10.2963 4.57925 10.301 4.57925 10.301V10.3104C4.55577 10.315 4.52759 10.3197 4.5041 10.3244C4.32563 10.3526 4.13306 10.3667 3.94989 10.3479H3.9452C3.92171 10.3479 3.90293 10.3432 3.87944 10.3432C3.87475 10.3432 3.87005 10.3432 3.86535 10.3432C3.67749 10.3197 3.48962 10.2728 3.31115 10.2023C3.22661 10.1695 3.14676 10.1319 3.06692 10.0896C3.02465 10.0614 2.98238 10.0379 2.94011 10.0192C2.91663 10.0051 2.89314 9.99098 2.86966 9.97219C2.85087 9.9581 2.83209 9.94871 2.818 9.93462C2.818 9.93462 2.818 9.93462 2.8133 9.93462C2.76633 9.89704 2.72406 9.86417 2.6771 9.82659C1.23991 8.62894 1.78473 6.08335 3.63991 5.67943C3.63052 5.66534 3.236 5.76867 3.17964 5.78276C3.33463 5.74049 3.48962 5.71231 3.63991 5.67943C3.64461 5.68413 2.60195 5.90487 3.63991 5.67943ZM2.36242 10.7518C2.52211 10.8599 2.83678 11.09 3.03404 11.09C3.31584 11.1933 3.63052 11.2638 3.93111 11.2779C4.0814 11.2873 4.25987 11.3013 4.41017 11.2685C4.52289 11.198 4.57925 11.1933 4.57925 11.2497C4.6544 11.7334 4.83757 12.3205 5.16633 12.6963C5.31193 12.8982 5.47631 13.0814 5.66418 13.2458L5.66888 13.2505C5.19921 13.5417 4.30684 14.3119 4.30684 14.9319C4.19882 14.9601 4.0814 14.9835 3.96868 14.9929C3.95929 14.9929 3.94989 14.9929 3.9405 14.9976C1.6861 15.2043 0.629346 12.1139 2.36242 10.7518C2.36712 10.7565 2.15107 10.9773 2.11819 10.9538C2.11819 10.9538 2.43287 10.7002 2.36242 10.7518C2.44226 10.8035 1.79882 11.198 2.36242 10.7518ZM3.19843 19.7178C2.01017 19.7178 1.09901 18.7738 0.958114 17.6231C0.89236 17.083 0.995687 16.5241 1.28218 16.0591C1.3996 15.8665 1.61565 15.5237 1.83639 15.4485C2.09471 15.3593 2.57377 15.6974 2.87905 15.8008C3.21721 15.8994 3.58825 15.9511 3.9405 15.9182C4.00156 15.9135 4.05792 15.9088 4.11897 15.9041C4.09549 16.3033 4.14715 16.7354 4.28336 17.1111C4.33502 17.2755 4.39608 17.454 4.48532 17.5996C4.60743 17.8391 4.76242 18.0927 4.95498 18.2853C5.18982 18.5577 5.218 18.5436 4.98316 18.8442C4.84696 19.018 4.69197 19.1683 4.51349 19.2951C4.12837 19.5722 3.66809 19.7178 3.19843 19.7178ZM9.5859 16.4677C9.5859 16.4724 9.5859 16.4724 9.5859 16.4677C9.29471 18.2477 7.10606 19.0556 5.78629 17.7968C5.19451 17.2286 4.84696 16.3925 5.06301 15.58C5.26966 14.8145 5.89901 13.9033 6.7585 13.7765C7.1859 13.6638 8.05009 13.6262 8.39764 13.9738C8.39764 13.9738 8.39764 13.9738 8.40234 13.9738C9.28531 14.4575 9.74089 15.5565 9.5906 16.4348C9.59529 16.3925 9.5953 16.4019 9.5859 16.4677C9.5859 16.4724 9.60469 16.3409 9.5859 16.4677ZM11.3331 16.416C11.0607 16.416 10.7882 16.3644 10.5346 16.2657C10.544 16.1389 10.5487 15.9933 10.5346 15.8665C10.5252 15.7303 10.5064 15.5941 10.483 15.4579C10.4783 15.4297 10.4736 15.4015 10.4642 15.3734C10.4642 15.3734 10.4642 15.3734 10.4642 15.3687C10.4595 15.3452 10.4548 15.317 10.4454 15.2935C10.4454 15.2888 10.4454 15.2888 10.4454 15.2888C10.328 14.8567 10.0931 14.1194 9.69392 13.8516C9.67514 13.8282 9.65635 13.8094 9.63757 13.7906C9.62817 13.7812 9.61878 13.7671 9.60939 13.7577C9.46849 13.6074 9.3088 13.4759 9.14441 13.3585C9.14441 13.3538 9.14911 13.3491 9.14911 13.3444C9.15381 13.3303 9.1585 13.3162 9.1632 13.3021C9.20547 13.1612 9.27122 13.0109 9.34637 12.8794C9.4497 12.6822 9.5859 12.499 9.74559 12.344C9.75968 12.3299 9.76907 12.3205 9.78316 12.3064C9.79725 12.2923 9.80665 12.283 9.82074 12.2736C9.83013 12.2642 9.83952 12.2548 9.85361 12.2454C9.85831 12.2407 9.86301 12.236 9.8724 12.2313C9.88179 12.2219 9.89588 12.2125 9.90528 12.2031C10.0039 12.1139 10.1213 12.0387 10.2387 11.973C10.746 12.2923 11.319 12.452 11.9201 12.452C11.9201 12.4567 11.9201 12.4661 11.9201 12.4708C11.892 12.9405 11.9577 13.4102 12.1174 13.8516C12.2066 14.0959 12.4509 14.744 12.7092 14.8755C12.7139 14.8849 12.7233 14.8943 12.7327 14.899C12.7468 14.9178 12.7609 14.9319 12.7749 14.946C12.8689 15.0493 12.9675 15.1479 13.0755 15.2372C13.2775 15.3076 13.2916 15.4015 13.1272 15.5237C13.0567 15.6974 12.7984 15.8712 12.6528 15.9792C12.263 16.261 11.8074 16.416 11.3331 16.416ZM15.1139 15.0775C13.6861 15.0775 12.6387 13.6826 12.8548 12.3111C13.2728 12.1796 13.8035 11.9354 14.0806 11.5831C14.1135 11.5503 14.1464 11.5221 14.1746 11.4892C14.1792 11.4845 14.1839 11.4798 14.1886 11.4751C14.2309 11.4329 14.2732 11.3859 14.3108 11.3389C14.3248 11.3248 14.3342 11.3107 14.3483 11.2967C14.353 11.292 14.3577 11.2873 14.3624 11.2779C14.4329 11.1933 14.5268 11.0806 14.5785 10.982C14.6959 10.7988 14.8039 10.6015 14.8791 10.3996C14.8837 10.3855 14.8884 10.3761 14.8931 10.362C16.2035 10.2352 17.3495 11.3436 17.3965 12.6305C17.4434 13.8939 16.4149 15.0775 15.1139 15.0775Z"/>
    </symbol>
    
    <symbol id="walnut" viewBox="0 0 24 25"> 
            <path d="M21.8897 5.77338C21.7746 5.60552 21.5396 5.56715 21.3765 5.68225C21.2086 5.79736 21.1703 6.03237 21.2854 6.19544C22.5707 8.02278 23.2518 10.1235 23.2518 12.277C23.2518 15.0635 22.1055 17.759 20.0192 19.8741C18.446 21.4664 16.4221 22.6559 14.1679 23.3321C13.717 22.9676 13.4436 22.2434 13.3189 21.0492C13.7794 21.476 14.3933 21.7398 15.0647 21.7398C15.8465 21.7398 16.5803 21.3849 17.0647 20.7806C17.1271 20.7854 17.1894 20.7854 17.2518 20.7854C18.6667 20.7854 19.8225 19.6343 19.8225 18.2146C19.8225 17.9988 19.7986 17.7926 19.7458 17.5863C20.4221 17.3082 21.0216 16.8477 21.4628 16.2626C22 15.5528 22.283 14.7038 22.283 13.8118C22.283 12.9245 21.9952 12.0659 21.4676 11.3609C21.9808 10.8813 22.2782 10.205 22.2782 9.48561C22.2782 8.22902 21.3861 7.18345 20.187 6.96283C20.1583 5.82134 19.3861 4.84772 18.3022 4.55036C17.9472 3.28417 16.7866 2.39209 15.4532 2.39209C14.7962 2.39209 14.1871 2.60791 13.6978 2.97242C13.9712 2.32494 14.3453 1.77818 14.7962 1.41847C16.9784 2.18106 18.9113 3.43285 20.3933 5.07314C20.5324 5.22662 20.7626 5.23621 20.9161 5.10192C21.0695 4.96763 21.0791 4.73261 20.9448 4.57914C18.7242 2.1283 15.5635 0.497602 12.048 0.00359712C12.0144 -0.00119904 11.9808 -0.00119904 11.9424 0.00359712C8.65228 0.468825 5.63549 1.94604 3.44844 4.16187C1.22302 6.41607 0 9.29856 0 12.277C0 15.2554 1.22302 18.1379 3.44844 20.3921C5.63549 22.6079 8.65228 24.0851 11.9472 24.5504C11.9664 24.5552 11.9808 24.5552 12 24.5552C12.0192 24.5552 12.0336 24.5552 12.0528 24.5504C15.3429 24.0851 18.3597 22.6079 20.5516 20.3921C22.7722 18.1379 24 15.2554 24 12.277C23.9904 9.97482 23.2662 7.72542 21.8897 5.77338ZM15.4532 3.13549C16.518 3.13549 17.4341 3.89329 17.6307 4.93405C17.6595 5.08273 17.7794 5.20264 17.9281 5.22662C18.7722 5.3753 19.3957 6.08034 19.4388 6.93405C18.8537 6.99161 18.307 7.2506 17.8849 7.67266C17.741 7.81655 17.741 8.05156 17.8849 8.19544C17.9568 8.26739 18.0528 8.30576 18.1439 8.30576C18.2398 8.30576 18.3309 8.26739 18.4029 8.19544C18.7482 7.85012 19.2086 7.65827 19.6978 7.65827C19.7074 7.65827 19.717 7.65827 19.7218 7.65348C19.741 7.65827 19.7554 7.65827 19.7746 7.65827C20.7578 7.70144 21.5252 8.5024 21.5252 9.48561C21.5252 9.99401 21.3141 10.4688 20.9544 10.8141C20.211 10.1187 19.2326 9.73501 18.2014 9.73501C17.9952 9.73501 17.8321 9.89808 17.8321 10.1043C17.8321 10.3106 17.9952 10.4736 18.2014 10.4736C19.0935 10.4736 19.9329 10.8189 20.5659 11.452C20.5851 11.4712 20.6043 11.4856 20.6235 11.5C20.6379 11.524 20.6523 11.5432 20.6667 11.5624C21.2326 12.1811 21.5396 12.9772 21.5396 13.8165C21.5396 14.5456 21.3094 15.241 20.8681 15.8261C20.5036 16.3058 20.0096 16.6847 19.458 16.9101C18.9976 16.1379 18.1679 15.6535 17.247 15.6535C16.5612 15.6535 15.9137 15.9221 15.4293 16.4065C15.2854 16.5504 15.2854 16.7854 15.4293 16.9293C15.5731 17.0731 15.8082 17.0731 15.952 16.9293C16.2974 16.5839 16.7578 16.3921 17.247 16.3921C17.9856 16.3921 18.6475 16.8285 18.9353 17.5096C19.0312 17.735 19.0791 17.9748 19.0791 18.2194C19.0791 19.1499 18.3837 19.9173 17.482 20.0324C17.5779 19.759 17.6307 19.4664 17.6307 19.1691C17.6307 18.9628 17.4676 18.7998 17.2614 18.7998C17.0552 18.7998 16.8921 18.9628 16.8921 19.1691C16.8921 19.5336 16.7866 19.8837 16.5851 20.1811C16.2446 20.6894 15.6739 20.9964 15.0647 20.9964C14.0576 20.9964 13.2326 20.1763 13.2326 19.1643C13.2326 18.6559 13.4388 18.1811 13.8082 17.8309C13.9472 17.7014 13.9616 17.4856 13.8465 17.3369C13.4436 16.8237 13.2326 16.205 13.2326 15.5528C13.2326 14.6511 13.6403 13.8165 14.3501 13.2602C14.3549 13.2554 14.3549 13.2554 14.3597 13.2506C14.8729 12.8525 15.4868 12.6415 16.1391 12.6415C16.3453 12.6415 16.5084 12.4784 16.5084 12.2722C16.5084 12.0659 16.3453 11.9029 16.1391 11.9029C15.4245 11.9029 14.7482 12.1043 14.1583 12.488C13.5731 11.8597 13.2374 11.0204 13.2374 10.1475C13.2374 9.23621 13.5923 8.38249 14.2302 7.73501C14.2302 7.73501 14.2302 7.73022 14.235 7.73022C14.8825 7.07794 15.7506 6.71343 16.6715 6.71343C16.8777 6.71343 17.0408 6.55036 17.0408 6.34413C17.0408 6.13789 16.8777 5.97482 16.6715 5.97482C15.6595 5.97482 14.7098 6.32974 13.952 6.98201C13.5012 6.56475 13.2374 5.97482 13.2374 5.35132C13.2374 4.13309 14.2302 3.13549 15.4532 3.13549ZM0.738609 12.277C0.738609 9.49041 1.88489 6.79496 3.97122 4.67986C5.39568 3.23621 7.19424 2.1235 9.19424 1.42326C9.64508 1.78297 10.024 2.32494 10.2926 2.97242C9.80336 2.61271 9.19424 2.39688 8.53717 2.39688C7.20384 2.39688 6.04317 3.28897 5.68825 4.55516C4.60432 4.85252 3.83213 5.82614 3.80336 6.96763C2.60432 7.19305 1.71223 8.23861 1.71223 9.49041C1.71223 10.205 2.00959 10.8813 2.52278 11.3657C1.9952 12.0707 1.70743 12.9245 1.70743 13.8165C1.70743 13.9029 1.71223 13.994 1.71703 14.0803C1.73141 14.2818 1.90887 14.44 2.11031 14.4257C2.31175 14.4113 2.47002 14.2386 2.45564 14.0324C2.45084 13.9604 2.45084 13.8885 2.45084 13.8165C2.45084 12.982 2.76259 12.1811 3.32374 11.5624C3.34293 11.5432 3.35731 11.524 3.36691 11.5C3.38609 11.4856 3.40528 11.4712 3.42446 11.452C4.05755 10.8189 4.89688 10.4736 5.78897 10.4736C5.9952 10.4736 6.15827 10.3106 6.15827 10.1043C6.15827 9.89808 5.9952 9.73501 5.78897 9.73501C4.753 9.73501 3.77938 10.1187 3.02158 10.8189C2.66187 10.4784 2.45084 9.9988 2.45084 9.49041C2.45084 8.50719 3.21823 7.70624 4.20144 7.66307C4.22062 7.66307 4.23501 7.65827 4.2542 7.65827C4.26379 7.66307 4.27338 7.66307 4.27818 7.66307C4.76739 7.66307 5.22782 7.85492 5.57314 8.20024C5.64508 8.27218 5.74101 8.31055 5.83213 8.31055C5.92806 8.31055 6.01918 8.27218 6.09113 8.20024C6.23501 8.05636 6.23501 7.82134 6.09113 7.67746C5.66906 7.2554 5.1223 6.9964 4.53717 6.93885C4.58034 6.08993 5.20384 5.3801 6.04796 5.23141C6.20144 5.20743 6.31655 5.08753 6.34532 4.93885C6.54676 3.89808 7.46283 3.14029 8.52278 3.14029C9.7458 3.14029 10.7434 4.13789 10.7434 5.36091C10.7434 5.98441 10.4796 6.56954 10.0288 6.99161C9.27098 6.33933 8.32134 5.98441 7.30935 5.98441C7.10312 5.98441 6.94005 6.14748 6.94005 6.35372C6.94005 6.55995 7.10312 6.72302 7.30935 6.72302C8.23022 6.72302 9.09832 7.08273 9.7458 7.73981C9.7458 7.73981 9.7458 7.7446 9.7506 7.7446C10.3933 8.39209 10.7434 9.2506 10.7434 10.1571C10.7434 11.03 10.4077 11.8693 9.81295 12.5024C9.22302 12.1187 8.54676 11.9173 7.83213 11.9173C7.6259 11.9173 7.46283 12.0803 7.46283 12.2866C7.46283 12.4928 7.6259 12.6559 7.83213 12.6559C8.48441 12.6559 9.09832 12.8669 9.61151 13.265C9.61631 13.2698 9.61631 13.2698 9.6211 13.2746C10.3309 13.8309 10.7386 14.6655 10.7386 15.5671C10.7386 16.2194 10.5276 16.8381 10.1247 17.3513C10.0096 17.5 10.024 17.7158 10.1631 17.8453C10.5324 18.1954 10.7386 18.6703 10.7386 19.1787C10.7386 20.1859 9.91846 21.0108 8.90647 21.0108C8.29257 21.0108 7.72662 20.7038 7.38609 20.1954C7.18465 19.8933 7.07914 19.5432 7.07914 19.1835C7.07914 18.9772 6.91607 18.8141 6.70983 18.8141C6.5036 18.8141 6.34053 18.9772 6.34053 19.1835C6.34053 19.4808 6.39329 19.7734 6.48921 20.0468C5.59233 19.9317 4.89209 19.1643 4.89209 18.2338C4.89209 17.9892 4.94005 17.7494 5.03597 17.524C5.32374 16.8429 5.98561 16.4065 6.72422 16.4065C7.21343 16.4065 7.67386 16.5983 8.01918 16.9436C8.16307 17.0875 8.39808 17.0875 8.54197 16.9436C8.68585 16.7998 8.68585 16.5647 8.54197 16.4209C8.05755 15.9365 7.41007 15.6679 6.72422 15.6679C5.80815 15.6679 4.97362 16.1523 4.51319 16.9245C3.7554 16.6127 3.1271 16.0324 2.76259 15.2842C2.67146 15.1019 2.45084 15.0252 2.26858 15.1115C2.08633 15.2026 2.00959 15.4233 2.09592 15.6055C2.53717 16.512 3.29976 17.2266 4.22542 17.6055C4.17266 17.8118 4.14868 18.018 4.14868 18.2338C4.14868 19.6487 5.29976 20.8046 6.71942 20.8046C6.78177 20.8046 6.84412 20.8046 6.90647 20.7998C7.39089 21.4041 8.1247 21.759 8.90647 21.759C9.58273 21.759 10.1966 21.4952 10.6523 21.0683C10.5276 22.2626 10.2542 22.982 9.80336 23.3513C7.54916 22.6751 5.52518 21.4856 3.95204 19.8933C1.88969 17.759 0.738609 15.0635 0.738609 12.277ZM11.9952 23.8118C11.5348 23.7446 11.0839 23.6583 10.6379 23.5528C11.2422 22.7758 11.4964 21.4233 11.4964 19.1691C11.4964 18.5743 11.2854 17.994 10.9113 17.5384C11.295 16.9484 11.4964 16.2674 11.4964 15.5576C11.4964 14.5695 11.1031 13.6391 10.4077 12.958C11.1031 12.1954 11.4964 11.1882 11.4964 10.1475C11.4964 9.17866 11.1655 8.25779 10.5612 7.51439C11.1511 6.95803 11.4964 6.17626 11.4964 5.35611C11.4964 4.42566 11.3141 3.5048 10.9736 2.68465C10.7194 2.08034 10.3933 1.56715 10.0096 1.16906C10.6571 0.982014 11.3237 0.842926 12 0.742206C12.6811 0.842926 13.3429 0.982014 13.9904 1.16906C13.6067 1.56715 13.2758 2.08513 13.0264 2.68465C12.6859 3.5048 12.5036 4.42566 12.5036 5.35611C12.5036 6.17626 12.8489 6.95803 13.4388 7.51439C12.8345 8.25779 12.5036 9.17866 12.5036 10.1475C12.5036 11.1882 12.8969 12.1954 13.5923 12.958C12.8969 13.6391 12.5036 14.5695 12.5036 15.5576C12.5036 16.2722 12.705 16.9484 13.0887 17.5384C12.7146 17.994 12.5036 18.5743 12.5036 19.1691C12.5036 21.4185 12.7578 22.771 13.3621 23.5528C12.9065 23.6583 12.4556 23.7446 11.9952 23.8118Z" />
    </symbol>
    
    <symbol id="Sesame_seed" viewBox="0 0 24 24"> 
            <path d="M11.268 19.194C11.0196 19.119 10.7571 19.2597 10.6868 19.5081C10.0634 21.5986 8.09948 23.061 5.91524 23.061C3.16855 23.0563 0.937439 20.8252 0.937439 18.0832C0.937439 14.4037 2.23111 10.818 4.58408 7.98695L5.37621 7.03545C5.50746 6.87608 5.70432 6.78234 5.91056 6.78234C6.11679 6.78234 6.31365 6.87608 6.4449 7.03545L7.23703 7.98695C9.03223 10.1477 10.2228 12.7538 10.6774 15.524C10.7196 15.7771 10.9587 15.9505 11.2165 15.9083C11.4696 15.8661 11.643 15.6271 11.6008 15.3693C11.118 12.4351 9.85718 9.67434 7.95886 7.38699L7.17141 6.4308C6.86206 6.05582 6.40271 5.84021 5.91524 5.84021C5.42777 5.84021 4.96843 6.05582 4.65907 6.4308L3.86694 7.3823C1.37335 10.3821 0 14.1834 0 18.0832C0 21.3455 2.65295 23.9984 5.91524 23.9984C7.2136 23.9984 8.44633 23.5859 9.4822 22.8032C10.4806 22.0485 11.2305 20.9705 11.5868 19.7799C11.6571 19.5268 11.5164 19.2643 11.268 19.194Z" />
            <path d="M5.69025 11.8539C5.46058 11.9758 5.37621 12.2617 5.49808 12.4867C6.27146 13.9257 6.74487 15.5474 6.87143 17.1739C6.89017 17.4176 7.09641 17.6051 7.34015 17.6051C7.35421 17.6051 7.36358 17.6051 7.37764 17.6051C7.63544 17.5864 7.82761 17.3614 7.80886 17.1036C7.67294 15.3224 7.17141 13.621 6.32771 12.0461C6.20584 11.8164 5.91992 11.732 5.69025 11.8539Z" />
            <path d="M5.91524 20.0144C6.17304 20.0144 6.38396 19.8035 6.38396 19.5457C6.38396 19.2879 6.17304 19.077 5.91524 19.077C5.36684 19.077 4.91687 18.6317 4.91687 18.0786C4.91687 17.4927 4.95906 16.9021 5.04811 16.3256C5.08561 16.0678 4.91218 15.8287 4.65439 15.7912C4.39659 15.7537 4.15754 15.9272 4.12005 16.1849C4.0263 16.8083 3.97943 17.4458 3.97943 18.0786C3.97943 19.1473 4.84656 20.0144 5.91524 20.0144Z" />
            <path d="M5.91525 22.0064C8.08074 22.0064 9.83844 20.244 9.83844 18.0832C9.83844 17.8254 9.62751 17.6145 9.36972 17.6145C9.11192 17.6145 8.901 17.8254 8.901 18.0832C8.901 19.7284 7.56046 21.069 5.91525 21.069C5.65746 21.069 5.44653 21.2799 5.44653 21.5377C5.44653 21.7955 5.65746 22.0064 5.91525 22.0064Z" />
            <path d="M8.97128 15.2053C9.00878 15.2053 9.04628 15.2006 9.08377 15.1912C9.33688 15.1303 9.49156 14.8772 9.43063 14.6241C9.10721 13.2835 8.59631 11.9946 7.91666 10.7946C7.79011 10.5697 7.50419 10.49 7.2792 10.6165C7.05422 10.7431 6.97454 11.029 7.10109 11.254C7.73855 12.3789 8.21664 13.5835 8.52131 14.8397C8.56818 15.06 8.76036 15.2053 8.97128 15.2053Z" />
            <path d="M4.11068 11.4039C3.87632 11.2914 3.59977 11.3851 3.48259 11.6195C2.50766 13.6256 1.99207 15.8567 1.99207 18.0785C1.99207 18.3363 2.20299 18.5472 2.46079 18.5472C2.71858 18.5472 2.9295 18.3363 2.9295 18.0785C2.9295 15.9973 3.41229 13.9069 4.32629 12.032C4.43878 11.7976 4.34035 11.5211 4.11068 11.4039Z" />
            <path d="M23.9938 13.2601L23.8813 12.0273C23.525 8.14635 21.8095 4.49033 19.0534 1.72958C16.7473 -0.576525 12.9976 -0.576525 10.6915 1.72958C8.38539 4.03568 8.38539 7.78543 10.6915 10.0915C13.4476 12.8476 17.1036 14.5631 20.9893 14.924L22.222 15.0365C22.2736 15.0412 22.3251 15.0412 22.372 15.0412C22.8032 15.0412 23.2157 14.8725 23.525 14.5631C23.8625 14.221 24.0359 13.7429 23.9938 13.2601ZM22.8548 13.9022C22.7095 14.0475 22.5032 14.1225 22.297 14.1038L21.0643 13.9913C17.3989 13.6538 13.9491 12.032 11.3477 9.43064C9.4072 7.49014 9.4072 4.33097 11.3477 2.39047C12.2898 1.44834 13.5366 0.932752 14.8678 0.932752C16.1989 0.932752 17.4457 1.44834 18.3879 2.39047C20.9893 4.99187 22.611 8.44633 22.9485 12.107L23.061 13.3398C23.0751 13.5507 23.0048 13.7569 22.8548 13.9022Z" />
            <path d="M14.8631 4.91686C15.1303 4.91686 15.3787 5.01998 15.5662 5.20746C15.9787 5.61994 16.3677 6.06991 16.7146 6.53863C16.8083 6.66518 16.9489 6.7308 17.0942 6.7308C17.1927 6.7308 17.2864 6.70268 17.3708 6.63706C17.577 6.48238 17.6239 6.19178 17.4692 5.98085C17.0942 5.46995 16.6771 4.98717 16.2318 4.54188C15.8662 4.17628 15.3834 3.97473 14.8631 3.97473C14.3475 3.97473 13.8601 4.17628 13.4945 4.54188C13.3117 4.72468 13.3117 5.01998 13.4945 5.20278C13.6773 5.38558 13.9726 5.38558 14.1554 5.20278C14.3475 5.01998 14.6006 4.91686 14.8631 4.91686Z" />
            <path d="M19.1144 9.57599C17.5489 9.10258 16.0677 8.2917 14.8256 7.23239C14.6287 7.06365 14.3334 7.08709 14.1647 7.28395C13.996 7.48081 14.0194 7.7761 14.2163 7.94484C15.5709 9.10727 17.127 9.95565 18.8425 10.4759C18.8894 10.49 18.9316 10.4947 18.9785 10.4947C19.18 10.4947 19.3675 10.3634 19.4284 10.1619C19.4987 9.90878 19.3581 9.65098 19.1144 9.57599Z" />
            <path d="M17.6379 3.13576C17.4551 2.95296 17.1598 2.95296 16.977 3.13576C16.7942 3.31856 16.7942 3.61385 16.977 3.79665C18.4488 5.26843 19.5831 7.08706 20.2674 9.06037C20.333 9.25255 20.5158 9.37442 20.7127 9.37442C20.7643 9.37442 20.8158 9.36504 20.8674 9.34629C21.1111 9.26192 21.2424 8.99475 21.158 8.75102C20.4268 6.65116 19.2128 4.70597 17.6379 3.13576Z" />
            <path d="M18.8566 11.5726C17.6098 11.2305 16.4193 10.7149 15.3178 10.0399C15.0975 9.90401 14.8069 9.97431 14.6756 10.1946C14.5397 10.4149 14.61 10.7055 14.8303 10.8368C16.0068 11.5586 17.2817 12.107 18.6082 12.4726C18.6504 12.482 18.6925 12.4913 18.7347 12.4913C18.941 12.4913 19.1285 12.3554 19.1847 12.1492C19.2503 11.8961 19.105 11.6383 18.8566 11.5726Z" />
            <path d="M12.7539 3.13576C12.5711 2.95296 12.2758 2.95296 12.093 3.13576C10.565 4.66378 10.565 7.15737 12.093 8.6854C12.1867 8.77914 12.3039 8.82133 12.4258 8.82133C12.5476 8.82133 12.6648 8.77446 12.7586 8.6854C12.9414 8.5026 12.9414 8.2073 12.7586 8.0245C11.5961 6.86208 11.5961 4.96376 12.7586 3.80134C12.9367 3.61854 12.9367 3.31856 12.7539 3.13576Z" />
            <path d="M11.3524 17.0754C11.2305 17.0754 11.1087 17.127 11.0196 17.2114C10.9305 17.3004 10.8837 17.4176 10.8837 17.5442C10.8837 17.666 10.9352 17.7879 11.0196 17.877C11.1087 17.966 11.2258 18.0129 11.3524 18.0129C11.4789 18.0129 11.5961 17.9613 11.6852 17.877C11.7742 17.7879 11.8211 17.6707 11.8211 17.5442C11.8211 17.4176 11.7695 17.3004 11.6852 17.2114C11.5961 17.1223 11.4743 17.0754 11.3524 17.0754Z" />
    </symbol>
    
    <symbol id="powdered_milk" viewBox="0 0 32 20"> 
            <path d="M8.48126 5.44995C8.74015 5.44995 8.95001 5.24009 8.95001 4.9812C8.95001 4.72232 8.74015 4.51245 8.48126 4.51245C8.22238 4.51245 8.01251 4.72232 8.01251 4.9812C8.01251 5.24009 8.22238 5.44995 8.48126 5.44995Z" />
            <path d="M11.4875 5.44995C11.7464 5.44995 11.9562 5.24009 11.9562 4.9812C11.9562 4.72232 11.7464 4.51245 11.4875 4.51245C11.2286 4.51245 11.0187 4.72232 11.0187 4.9812C11.0187 5.24009 11.2286 5.44995 11.4875 5.44995Z" />
            <path d="M9.98126 7.4187C10.2401 7.4187 10.45 7.20884 10.45 6.94995C10.45 6.69107 10.2401 6.4812 9.98126 6.4812C9.72238 6.4812 9.51251 6.69107 9.51251 6.94995C9.51251 7.20884 9.72238 7.4187 9.98126 7.4187Z" />
            <path d="M12.9875 7.4187C13.2464 7.4187 13.4562 7.20884 13.4562 6.94995C13.4562 6.69107 13.2464 6.4812 12.9875 6.4812C12.7286 6.4812 12.5187 6.69107 12.5187 6.94995C12.5187 7.20884 12.7286 7.4187 12.9875 7.4187Z" />
            <path d="M3.9375 7.4187C4.19638 7.4187 4.40625 7.20884 4.40625 6.94995C4.40625 6.69107 4.19638 6.4812 3.9375 6.4812C3.67862 6.4812 3.46875 6.69107 3.46875 6.94995C3.46875 7.20884 3.67862 7.4187 3.9375 7.4187Z" />
            <path d="M6.97498 7.4187C7.23386 7.4187 7.44373 7.20884 7.44373 6.94995C7.44373 6.69107 7.23386 6.4812 6.97498 6.4812C6.71609 6.4812 6.50623 6.69107 6.50623 6.94995C6.50623 7.20884 6.71609 7.4187 6.97498 7.4187Z" />
            <path d="M9.98126 3.47498C10.2401 3.47498 10.45 3.26511 10.45 3.00623C10.45 2.74734 10.2401 2.53748 9.98126 2.53748C9.72238 2.53748 9.51251 2.74734 9.51251 3.00623C9.51251 3.26511 9.72238 3.47498 9.98126 3.47498Z" />
            <path d="M6.97498 3.47498C7.23386 3.47498 7.44373 3.26511 7.44373 3.00623C7.44373 2.74734 7.23386 2.53748 6.97498 2.53748C6.71609 2.53748 6.50623 2.74734 6.50623 3.00623C6.50623 3.26511 6.71609 3.47498 6.97498 3.47498Z" />
            <path d="M5.50623 5.44995C5.76511 5.44995 5.97497 5.24009 5.97497 4.9812C5.97497 4.72232 5.76511 4.51245 5.50623 4.51245C5.24734 4.51245 5.03748 4.72232 5.03748 4.9812C5.03748 5.24009 5.24734 5.44995 5.50623 5.44995Z" />
            <path d="M30.525 8.01875H26.0563C25.7938 8.01875 25.5875 8.23125 25.5875 8.4875C25.5875 8.75 25.8 8.95625 26.0563 8.95625H30.525C30.8188 8.95625 31.0563 9.19375 31.0563 9.4875V9.64375C31.0563 9.90625 30.8688 10.125 30.6125 10.1687L16.4188 12.5312C16.1938 12.5688 16.025 12.7625 16.025 12.9937V15.5C16.025 17.45 14.4375 19.0375 12.4875 19.0375H4.46875C2.51875 19.0375 0.93125 17.45 0.93125 15.5V8.95625H23.7438C24.0063 8.95625 24.2125 8.74375 24.2125 8.4875C24.2125 8.225 24 8.01875 23.7438 8.01875H16.8063C16.5375 7.375 15.8375 5.80625 14.7438 4.2125C12.8563 1.45625 10.6875 0 8.48125 0C6.275 0 4.1 1.45625 2.20625 4.2125C0.8125 6.2375 0.05625 8.2375 0.025 8.31875V8.325C0.01875 8.3375 0.01875 8.35 0.0125 8.3625C0.0125 8.36875 0.0125 8.36875 0.00625 8.375C0 8.3875 0 8.4 0 8.41875C0 8.425 0 8.425 0 8.43125C0 8.45 0 8.46875 0 8.48125V15.5C0 17.9688 2.00625 19.975 4.475 19.975H12.4938C14.9625 19.975 16.9688 17.9688 16.9688 15.5V13.3938L30.7688 11.0938C31.4813 10.975 32 10.3625 32 9.64375V9.4875C31.9938 8.675 31.3313 8.01875 30.525 8.01875ZM8.48125 0.9375C12.3125 0.9375 14.9688 6.16875 15.7938 8.0125H1.16875C1.9875 6.16875 4.64375 0.9375 8.48125 0.9375Z" />
    </symbol>
    
    <symbol id="sugar_substitute" viewBox="0 0 24 25"> 
            <path d="M0.18761 21.5505C3.66777 23.7268 3.43795 23.6142 3.60211 23.6142C3.76627 23.6142 3.5599 23.708 6.80555 21.6865C10.0559 23.7174 9.84952 23.6142 10.009 23.6142C10.1685 23.6142 10.009 23.6846 12.6261 22.0477C12.8138 21.9304 12.87 21.6818 12.7528 21.4942C12.6355 21.3066 12.3869 21.2503 12.1993 21.3676L10.0043 22.7418L7.20422 20.9924V18.2345L8.66758 17.3199C8.85519 17.2027 8.91147 16.9541 8.79422 16.7665C8.67696 16.5789 8.42838 16.5226 8.24077 16.6398L6.80555 17.5404L4.00547 15.7909V13.033L6.80555 11.2836C8.3674 12.2591 8.26422 12.2122 8.37678 12.231C8.56439 12.2638 8.752 12.1653 8.82236 11.9871C8.89271 11.8089 8.82705 11.6072 8.66758 11.504L7.20422 10.5894V7.83154L10.0043 6.08208L12.8044 7.83154V8.40844C12.8044 8.62888 12.9826 8.80711 13.203 8.80711C13.4235 8.80711 13.6017 8.62888 13.6017 8.40844V7.83154L16.4018 6.08208L19.2019 7.83154V10.8098C19.2019 11.0303 19.3801 11.2085 19.6005 11.2085C19.821 11.2085 19.9992 11.0303 19.9992 10.8098V7.60641C19.9992 7.47039 19.9289 7.33907 19.8116 7.26871L16.7958 5.38323V2.40023C16.7958 2.26422 16.7254 2.13289 16.6082 2.06254L13.4188 0.0598007C13.2875 -0.0199336 13.1233 -0.0199336 12.9967 0.0598007L10.009 1.92652L7.01661 0.0598007C6.88528 -0.0199336 6.72113 -0.0199336 6.59449 0.0598007L3.39105 2.06254C3.27379 2.13758 3.20344 2.26422 3.20344 2.40023V5.37854L0.18761 7.26402C0.0703537 7.33907 0 7.4657 0 7.60172V10.8052C0 10.9412 0.0703537 11.0725 0.18761 11.1429L3.20344 13.0283V15.7862L0.18761 17.6717C0.0703537 17.7467 0 17.8734 0 18.0094V21.2128C0 21.3488 0.0703537 21.4755 0.18761 21.5505ZM13.2077 0.871214L16.0078 2.62068V5.37854L13.2077 7.12801L10.4077 5.37854V2.62068L13.2077 0.871214ZM6.80555 0.871214L9.60563 2.62068V5.37854L6.80555 7.12801L4.00547 5.37854V2.62068L6.80555 0.871214ZM0.802032 7.82685L3.60211 6.07739L6.40219 7.82685V10.5847L3.60211 12.3342L0.802032 10.5847V7.82685ZM0.802032 18.2298L3.60211 16.4804L6.40219 18.2298V20.9877L3.60211 22.7372L0.802032 20.9877V18.2298Z" />
            <path d="M18.4092 12.0105V11.6072C18.4092 10.9083 18.0997 10.2423 17.5697 9.78265L17.9684 8.98062C18.0668 8.78363 17.9824 8.54443 17.7854 8.44593C17.5884 8.34744 17.3492 8.42717 17.2507 8.62416L16.8802 9.36991C16.3221 9.14947 15.6983 9.14947 15.1354 9.36991L14.7649 8.62416C14.7039 8.49283 14.5726 8.40841 14.4319 8.39903C14.2865 8.38965 14.1505 8.46 14.0708 8.57726C13.991 8.6992 13.9816 8.84929 14.0473 8.98062L14.446 9.78265C13.9113 10.2376 13.6017 10.9036 13.6017 11.6072V12.0105C13.2359 12.0058 12.8419 12.0058 12.401 12.0058C10.2763 12.0058 7.99689 12.972 7.99689 14.4072C7.99689 16.1332 11.2472 17.0385 12.8654 16.7664C12.8278 17.0854 12.7997 17.5216 12.7997 17.8124C12.7997 20.6124 14.0004 22.8497 15.5998 23.1733V23.6189C15.5998 23.8393 15.778 24.0176 15.9985 24.0176C16.2189 24.0176 16.3971 23.8393 16.3971 23.6189V23.1686C17.9965 22.845 19.1972 20.6077 19.1972 17.8077C19.1972 17.5216 19.1691 17.0807 19.1315 16.7664C20.7684 17.0385 24 16.1239 24 14.4072C24 12.972 21.7252 12.0058 19.5959 12.0058C19.1925 12.0058 18.7845 12.0058 18.4092 12.0105ZM14.4085 11.6072C14.4085 10.7207 15.1261 10.0078 16.0078 10.0078C16.8943 10.0078 17.6072 10.7254 17.6072 11.6072V12.0293C17.0678 12.0199 16.5238 12.0996 16.0078 12.2591C15.4919 12.0903 14.9478 12.0152 14.4038 12.0293V11.6072H14.4085ZM16.0125 14.1587C16.2001 14.5339 16.43 14.8856 16.702 15.2046H15.3184C15.5857 14.8856 15.8202 14.5339 16.0125 14.1587ZM8.80361 14.4072C8.80361 13.6849 10.464 12.8079 12.4057 12.8079C13.2078 12.8079 15.0979 12.7938 15.5951 12.9533C15.4591 13.9148 14.0614 16.0113 12.4057 16.0113C10.4686 16.0066 8.80361 15.1295 8.80361 14.4072ZM14.4929 16.0066H17.5181C17.762 16.1989 18.0246 16.3631 18.3014 16.4991C18.3154 16.6023 18.3295 16.7055 18.3436 16.8086H15.6092C15.3887 16.8086 15.2105 16.9869 15.2105 17.2073C15.2105 17.4278 15.3887 17.606 15.6092 17.606H18.3999C18.4186 17.8733 18.4139 18.1407 18.3858 18.408H13.6299C13.6017 18.1407 13.597 17.8733 13.6158 17.606H14.0051C14.2255 17.606 14.4038 17.4278 14.4038 17.2073C14.4038 16.9869 14.2255 16.8086 14.0051 16.8086H13.6721C13.6862 16.7008 13.7002 16.5976 13.7143 16.4897C13.9957 16.3584 14.2537 16.1989 14.4929 16.0066ZM14.2068 20.8094H16.0078C16.2283 20.8094 16.4065 20.6312 16.4065 20.4108C16.4065 20.1903 16.2283 20.0121 16.0078 20.0121H13.9113C13.8362 19.7494 13.7753 19.4821 13.7284 19.21H18.292C18.2451 19.4821 18.1841 19.7494 18.1091 20.0121H17.6119C17.3915 20.0121 17.2132 20.1903 17.2132 20.4108C17.2132 20.6312 17.3915 20.8094 17.6119 20.8094H17.8136C16.838 22.9435 15.1823 22.9435 14.2068 20.8094ZM23.2121 14.4072C23.2121 15.4016 20.2384 16.4053 18.8126 15.8518C17.6213 15.289 16.7442 14.229 16.4206 12.9533C16.9975 12.7797 18.7282 12.8079 19.6099 12.8032C21.5517 12.8079 23.2121 13.6849 23.2121 14.4072Z" />
    </symbol>
    
    <symbol id="cocoa_beans" viewBox="0 0 24 19"> 
            <path d="M23.6531 9.80156C23.2687 8.74688 22.6031 7.84219 21.7265 7.18594C21.1031 6.72188 20.3953 6.40313 19.6312 6.23906C19.7953 4.73438 19.3265 3.17344 18.3468 1.9875C17.2875 0.707813 15.764 0 14.0578 0H13.7812C12.5859 0 11.4281 0.421875 10.4297 1.22344C10.2562 1.35938 10.05 1.43438 9.82966 1.43438C9.60935 1.43438 9.4031 1.35938 9.22966 1.22344C8.23591 0.421875 7.0781 0 5.88279 0H5.60623C4.37342 0 3.22029 0.375 2.27342 1.07813C1.39217 1.73438 0.726543 2.63438 0.346856 3.69375C-0.0328314 4.74375 -0.103144 5.85938 0.154668 6.91875C0.426543 8.0625 1.06873 9.07969 2.01092 9.86719C2.7281 10.4672 3.5156 10.9828 4.34998 11.4C4.31717 11.9484 4.36404 12.4922 4.4906 13.0266C4.76248 14.1703 5.40467 15.1875 6.34685 15.975C8.53591 17.8031 11.3156 18.8063 14.1703 18.8063C17.025 18.8063 19.8047 17.7984 21.9937 15.975C22.9359 15.1875 23.5781 14.1703 23.85 13.0266C24.1031 11.9672 24.0375 10.8516 23.6531 9.80156ZM4.49998 10.4016C3.83435 10.0453 3.20623 9.61875 2.62029 9.13125C0.792168 7.60781 0.712481 5.48906 1.24217 4.01719C1.77654 2.53594 3.20623 0.95625 5.60154 0.95625H5.8781C6.8531 0.95625 7.80466 1.30781 8.62966 1.96875C8.96716 2.24063 9.39373 2.39063 9.82498 2.39063C10.2562 2.39063 10.6828 2.24063 11.0203 1.96875C11.8453 1.30313 12.7968 0.95625 13.7718 0.95625H14.0484C15.464 0.95625 16.725 1.5375 17.6015 2.59688C18.4172 3.58125 18.8015 4.87031 18.675 6.1125C18.5812 6.10781 18.4828 6.10313 18.3843 6.10313H18.1078C16.9125 6.10313 15.7547 6.525 14.7562 7.32656C14.5828 7.4625 14.3765 7.5375 14.1562 7.5375C13.9359 7.5375 13.7297 7.4625 13.5562 7.32656C12.5578 6.525 11.4 6.10313 10.2047 6.10313H9.9281C8.69529 6.10313 7.54685 6.47813 6.59529 7.18125C5.71404 7.8375 5.04842 8.7375 4.66873 9.79688C4.60779 9.99844 4.54685 10.2 4.49998 10.4016ZM21.3797 15.2391C19.364 16.9219 16.8 17.85 14.1703 17.85C11.5406 17.85 8.97185 16.9219 6.95623 15.2391C5.1281 13.7156 5.04842 11.5969 5.5781 10.125C6.11248 8.64375 7.54216 7.06406 9.93748 7.06406H10.214C11.189 7.06406 12.1406 7.41563 12.9656 8.07656C13.3031 8.34844 13.7297 8.49844 14.1609 8.49844C14.5922 8.49844 15.0187 8.34844 15.3562 8.07656C16.1812 7.41094 17.1328 7.06406 18.1078 7.06406H18.3843C20.7797 7.06406 22.2093 8.64844 22.7437 10.125C23.2875 11.5969 23.2078 13.7156 21.3797 15.2391Z" />
    </symbol>
    
    <symbol id="oats" viewBox="0 0 17 24"> 
            <path d="M11.4701 14.3212C11.9297 15.0528 12.6565 15.4513 13.4349 15.4513C13.796 15.4513 14.1665 15.3669 14.5276 15.1887L15.925 14.6964L14.9918 13.5428C14.6026 12.9238 14.0164 12.5533 13.3787 12.4502C13.8664 12.4174 14.3494 12.2345 14.7667 11.8828L16.0047 11.0715L14.823 10.1758C14.5557 9.91325 14.2509 9.73974 13.932 9.62251C14.1993 9.42087 14.4291 9.15358 14.6073 8.83001L15.4654 7.62016L14.0399 7.21688C13.4818 6.98241 12.9097 6.96366 12.4033 7.12778C12.7644 6.83705 13.0457 6.43376 13.1958 5.93669L13.7913 4.58148L12.3142 4.47362C11.0715 4.23447 9.96014 4.90035 9.59437 6.1102L9.11606 7.19343C8.82063 6.8558 8.50176 6.54162 8.15475 6.25557L9.29895 5.64596C10.4807 5.19109 11.0621 4.03283 10.7292 2.8136L10.5135 1.34584L9.20516 2.03986C8.02345 2.49472 7.44197 3.65299 7.77491 4.8769L7.95311 6.08675C7.5592 5.78195 7.13716 5.51934 6.68699 5.28957L7.24502 4.27198C7.98593 3.24502 7.84056 1.95545 6.88863 1.11606L5.90856 0L5.19578 1.29894C4.45487 2.32591 4.60023 3.61547 5.55217 4.45486L6.0211 4.98007C5.91794 4.93787 5.81946 4.89566 5.71161 4.85815C5.52872 4.79719 5.34115 4.86753 5.23329 5.01758L4.46424 4.13599C3.75147 3.09027 2.49472 2.78077 1.37866 3.38101L0 3.92497L0.970692 5.04103C1.43963 5.73036 2.14302 6.10082 2.89332 6.10082C3.01993 6.10082 3.14654 6.08675 3.26846 6.06331C2.67292 6.29308 2.18523 6.7714 1.92732 7.44666L1.24267 8.76436L2.71043 8.966C2.93083 9.02227 3.15123 9.05041 3.36694 9.05041C3.74678 9.05041 4.10785 8.95662 4.42673 8.78781C4.3095 9.13482 4.26729 9.51934 4.32356 9.92263L4.36108 11.4045L5.74443 10.8746C5.85698 10.8464 5.96483 10.8042 6.068 10.762C6.03517 10.8746 6.00235 10.9918 5.98359 11.1137L5.58499 12.5393L7.06213 12.4408C7.08089 12.4408 7.09965 12.4361 7.11841 12.4408C6.88394 12.6518 6.67761 12.9097 6.52755 13.2239L5.73036 14.4713L7.17468 14.8042C7.34349 14.8652 7.51231 14.9027 7.68113 14.9261C7.06213 14.9777 6.47597 15.2778 6.03986 15.8265L4.98476 16.8675L6.32122 17.51C6.73857 17.7773 7.18875 17.9086 7.62485 17.9086C8.3095 17.9086 8.97069 17.5944 9.45369 16.9894L9.50997 16.9332C8.19226 20.1172 5.35522 22.4525 1.61782 23.1653C1.38804 23.2075 1.23798 23.4326 1.28019 23.6577C1.3177 23.8593 1.4959 24 1.69285 24C1.72098 24 1.74443 23.9953 1.77257 23.9906C5.57562 23.2638 8.51114 20.9801 10.0258 17.8429L9.96952 19.0856C9.7585 20.3329 10.4572 21.4256 11.6811 21.7632L13.0551 22.3212L13.1254 20.8394C13.3365 19.592 12.6377 18.4994 11.4138 18.1618L10.1336 17.6366C10.3634 17.1301 10.551 16.6049 10.7104 16.061L10.8886 16.6893C11.0856 17.9367 12.0938 18.7573 13.3599 18.687L14.837 18.7855L14.4338 17.3599C14.2368 16.1079 13.2192 15.2919 11.9625 15.3623L10.9027 15.2919C11.0012 14.8277 11.0762 14.354 11.1184 13.871L11.4701 14.3212ZM9.52872 2.80891L9.85698 2.64009L9.90387 2.94959L9.91325 3.00117C10.143 3.81243 9.76788 4.55803 8.98007 4.85346L8.65182 5.02227L8.60492 4.71278L8.59555 4.6612C8.36108 3.84994 8.73623 3.10434 9.52872 2.80891ZM5.8898 1.77257L6.07269 1.449L6.28371 1.68347L6.32122 1.72098C6.95897 2.27433 7.05276 3.09965 6.551 3.7796L6.36811 4.10317L6.16178 3.8687L6.12427 3.83118C5.48652 3.28253 5.39273 2.45252 5.8898 1.77257ZM10.8136 19.2169L10.8324 18.8511L11.1231 18.9683L11.1747 18.9871C11.9906 19.2028 12.4408 19.9015 12.2907 20.7362L12.272 21.102L11.9812 20.9848L11.9297 20.966C11.1137 20.7503 10.6635 20.0469 10.8136 19.2169ZM11.9672 16.2204H11.9953C12.8347 16.1594 13.4865 16.6893 13.6084 17.524L13.7069 17.8804L13.3646 17.857H13.3365C12.5018 17.9179 11.8453 17.388 11.7233 16.5533L11.6249 16.197L11.9672 16.2204ZM11.1653 12.9472C11.1653 12.8253 11.1747 12.7081 11.1747 12.5862C11.17 12.1735 11.1278 11.7655 11.0668 11.3669L11.5967 11.7702C11.9672 12.1313 12.4033 12.347 12.8581 12.422C12.5533 12.4455 12.2438 12.5252 11.9437 12.6753L11.1653 12.9472ZM10.5744 9.58499L11.6108 9.88042C11.6764 9.90856 11.7421 9.932 11.803 9.95076C11.7515 9.98828 11.6999 10.0164 11.6483 10.0586L10.8886 10.5557C10.8089 10.2227 10.7011 9.89918 10.5744 9.58499ZM14.2884 14.007L14.5182 14.2978L14.2227 14.4009L14.1712 14.4244C13.4209 14.8042 12.619 14.5791 12.1782 13.8617L11.9484 13.5709L12.2438 13.4678L12.2954 13.4443C13.0457 13.0598 13.8476 13.2849 14.2884 14.007ZM14.5463 11.0152L14.2837 11.1887L14.2415 11.2216C13.5991 11.7749 12.7691 11.7421 12.1688 11.1512L11.8781 10.9261L12.1407 10.7526L12.1829 10.7198C12.8206 10.1665 13.6553 10.1993 14.2556 10.7902L14.5463 11.0152ZM13.7304 7.99531L14.0821 8.09848L13.8992 8.35639L13.871 8.40328C13.4771 9.14889 12.6893 9.42556 11.9156 9.09261L11.5639 8.98945L11.7468 8.73154L11.7749 8.68464C12.1735 7.93904 12.9566 7.66237 13.7304 7.99531ZM10.3775 6.41501L10.3962 6.36342C10.6307 5.55217 11.3435 5.12075 12.1735 5.29426L12.5393 5.32239L12.4127 5.60844L12.3939 5.66002C12.1594 6.47128 11.442 6.89801 10.6166 6.72919L10.2509 6.70105L10.3775 6.41501ZM10.476 7.56389C10.6448 7.59672 10.8136 7.61547 10.9777 7.61547C11.2263 7.61547 11.4607 7.57796 11.6858 7.50762C11.4326 7.70457 11.2122 7.9578 11.0434 8.26729L10.3962 9.17702C10.1196 8.5721 9.77257 8 9.3646 7.48417L10.476 7.56389ZM9.39273 9.05041L8.45487 9.11137C8.09379 9.09261 7.75616 9.15357 7.44666 9.27081C7.53576 8.95193 7.56858 8.60492 7.517 8.23916L7.47948 6.78077C8.26729 7.39977 8.91442 8.1735 9.39273 9.05041ZM1.66002 4.55334L1.42087 4.27198L1.71161 4.15944L1.76319 4.13599C2.49941 3.72802 3.31067 3.92497 3.77491 4.62837L4.01407 4.90973L3.72333 5.02227L3.67175 5.04572C2.93552 5.45369 2.12427 5.25205 1.66002 4.55334ZM4.05627 5.79601L5.16764 5.35991C5.20047 5.49121 5.29426 5.60844 5.43025 5.65533C6.17585 5.91325 6.8558 6.29308 7.46073 6.76671L6.09613 7.28722C5.8898 7.3388 5.70692 7.41852 5.53341 7.50762L6.21805 6.18992L4.75029 5.98828C4.40328 5.89918 4.07034 5.88511 3.75147 5.93669C3.85463 5.89449 3.9578 5.85229 4.05627 5.79601ZM2.91208 8.14537L2.54631 8.0891L2.69168 7.81243L2.71512 7.76084C3.00117 6.96835 3.74209 6.58382 4.55803 6.80891L4.9238 6.86518L4.77843 7.14185L4.75498 7.19343C4.46424 7.98593 3.72333 8.37046 2.91208 8.14537ZM5.52872 10.0633L5.18171 10.1899L5.17233 9.87573L5.16764 9.81946C5.03634 8.98476 5.50059 8.29543 6.32122 8.09848L6.66823 7.97186L6.67761 8.28605L6.6823 8.34232C6.8136 9.17702 6.34936 9.86635 5.52872 10.0633ZM7.06682 11.5967L6.7245 11.6202L6.80891 11.32L6.81829 11.2638C6.93552 10.4666 7.52638 9.95545 8.3095 9.95545C8.34701 9.95545 8.38453 9.95545 8.42673 9.96014H8.45487L8.79719 9.93669L8.71278 10.2368L8.7034 10.2931C8.58148 11.1278 7.94373 11.653 7.09496 11.6014L7.06682 11.5967ZM9.53341 10.4431L9.73036 9.74443C10.0539 10.5135 10.2509 11.3482 10.3072 12.2157L9.46776 12.0234C9.22861 11.939 8.98945 11.8968 8.75498 11.8828C9.16295 11.5311 9.44431 11.0387 9.53341 10.4431ZM7.09027 13.9226L7.25909 13.66L7.28722 13.6131C7.64361 12.8488 8.41735 12.5346 9.20516 12.83L9.56624 12.9144L9.39742 13.177L9.36929 13.2239C9.0129 13.9883 8.23916 14.3072 7.45135 14.007L7.09027 13.9226ZM8.84408 16.4174L8.80657 16.4596C8.29074 17.1254 7.46542 17.2614 6.76202 16.8019L6.43376 16.6377L6.65885 16.4174L6.69637 16.3751C7.21219 15.7093 8.03283 15.5733 8.74091 16.0328L9.06917 16.197L8.84408 16.4174ZM9.17702 15.3107C8.87222 15.1137 8.54396 15.0012 8.2204 14.9496C9.02227 14.8839 9.73505 14.4103 10.1196 13.6038L10.3118 13.3036C10.2743 14.129 10.1524 14.9215 9.94607 15.6811L9.17702 15.3107Z" />
    </symbol>
   
    <symbol id="seaweed" viewBox="0 0 24 17"> 
            <path d="M23.5312 15.5625H20.8922C20.9906 15.3891 21.0469 15.1922 21.0469 14.9813V13.8844C21.0469 13.7156 21.1687 13.5984 21.3422 13.5984H22.7531C23.4422 13.5984 24 13.0313 24 12.3328C24 10.9969 23.4797 9.74531 22.5375 8.79844C21.7453 8.00625 20.4094 8.58281 20.4094 9.67969C20.4094 9.84844 20.2734 9.98906 20.1 9.98906H18.6891C18.5344 9.98906 18.3844 10.0172 18.2438 10.0734L18.0984 9.675C18.0422 9.51562 18.1219 9.3375 18.2812 9.28125L19.3125 8.90625C19.9594 8.67188 20.2922 7.95469 20.0578 7.30781L19.6828 6.27656C19.6266 6.11719 19.7062 5.93906 19.8656 5.88281C20.9109 5.50313 20.9719 4.05469 19.9641 3.58125C18.7547 3.01875 17.4 2.95781 16.1437 3.4125C15.4969 3.64688 15.1641 4.36406 15.3984 5.01094L15.7734 6.04219C15.8297 6.20156 15.75 6.37969 15.5906 6.43594L14.9531 6.66563C14.9578 6.34219 14.8359 6.01875 14.5875 5.775L13.8094 4.99688C13.6875 4.875 13.6875 4.68281 13.8094 4.56094L14.5875 3.78281C15.075 3.29531 15.075 2.50781 14.5875 2.02031C13.65 1.08281 12.3984 0.5625 11.0625 0.5625C9.94219 0.5625 9.40312 1.9125 10.1812 2.69062C10.3031 2.8125 10.3031 3.00469 10.1812 3.12656L9.40313 3.90469C8.91563 4.39219 8.91563 5.17969 9.40313 5.66719L10.1812 6.44531C10.3031 6.56719 10.3031 6.75938 10.1812 6.88125L9.89062 7.17188C9.75469 7.01719 9.58125 6.89531 9.37969 6.82031L8.34844 6.44531C8.26875 6.41719 8.20781 6.36094 8.175 6.28594C8.14219 6.21094 8.1375 6.12656 8.16562 6.05156L8.54062 5.02031C8.775 4.37344 8.44219 3.66094 7.79531 3.42188C6.54375 2.96719 5.18438 3.02344 3.975 3.59063C2.97188 4.05938 3.03281 5.50781 4.07344 5.8875C4.23281 5.94375 4.31719 6.12188 4.25625 6.28125L3.88125 7.3125C3.64688 7.95938 3.97969 8.67188 4.62656 8.91094L5.65781 9.28594C5.81719 9.34219 5.90156 9.52031 5.84062 9.67969L5.69531 10.0734C5.55469 10.0172 5.4 9.98906 5.25 9.98906H3.89062C3.72187 9.98906 3.58125 9.85313 3.58125 9.67969C3.58125 8.58281 2.24531 8.00625 1.45312 8.79844C0.534375 9.72656 0 11.0203 0 12.3469C0 13.0359 0.557813 13.5938 1.24688 13.5938H2.60625C2.77969 13.5938 2.90625 13.7156 2.90625 13.8797V14.9766C2.90625 15.1875 2.95781 15.3844 3.05156 15.5578H0.46875C0.210938 15.5578 0 15.7688 0 16.0266C0 16.2844 0.210938 16.4953 0.46875 16.4953C1.36875 16.4953 22.2375 16.4953 23.5312 16.4953C23.7891 16.4953 24 16.2844 24 16.0266C24 15.7688 23.7891 15.5625 23.5312 15.5625ZM6.0375 15.5625C5.81719 15.3797 5.54063 15.2813 5.25469 15.2813H4.15781C3.98437 15.2813 3.84375 15.1453 3.84375 14.9813V13.8844C3.84375 13.1953 3.3 12.6609 2.60625 12.6609H1.24688C1.07812 12.6609 0.9375 12.525 0.9375 12.3516C0.9375 11.2688 1.36875 10.2188 2.12813 9.46406C2.32031 9.27188 2.65312 9.40781 2.65312 9.67969C2.65312 10.3688 3.21094 10.9266 3.9 10.9266L5.25937 10.9219C5.35312 10.9219 5.44219 10.9688 5.50313 11.0391C5.51719 11.0719 5.53594 11.1047 5.55937 11.1328C5.57344 11.1656 5.57812 11.2031 5.57812 11.2406V12.3281C5.57812 13.0266 6.13125 13.5938 6.81094 13.5938H7.90781C8.07656 13.5938 8.20312 13.7156 8.20312 13.8797V14.9766C8.20312 15.1875 8.25469 15.3844 8.35312 15.5578H6.0375V15.5625ZM10.5609 15.2813H9.46406C9.29062 15.2813 9.14531 15.1453 9.14531 14.9813V13.8844C9.14531 13.1953 8.60625 12.6609 7.9125 12.6609H6.81562C6.65625 12.6609 6.52031 12.5109 6.52031 12.3328V11.2359C6.52031 11.0859 6.49219 10.9406 6.44062 10.8047L6.73125 10.0031C6.96563 9.35625 6.63281 8.64375 5.98594 8.40469L4.95469 8.02969C4.79531 7.97344 4.71094 7.79531 4.77188 7.63594L5.14688 6.60469C5.38125 5.95781 5.04844 5.24531 4.40156 5.00625C4.14375 4.9125 4.125 4.55625 4.37813 4.43906C5.3625 3.97969 6.46406 3.93281 7.48125 4.30313C7.64063 4.35938 7.725 4.5375 7.66406 4.69688L7.28906 5.72813C7.17656 6.04219 7.19062 6.37969 7.33125 6.67969C7.47187 6.97969 7.72031 7.20938 8.03437 7.32188L9.06562 7.69688C9.14531 7.725 9.20625 7.78594 9.24375 7.86094C8.93437 8.34375 8.99063 8.99531 9.4125 9.4125L10.1906 10.1906C10.3125 10.3125 10.3125 10.5047 10.1906 10.6266L9.4125 11.4047C8.925 11.8922 8.925 12.6797 9.4125 13.1672L10.6406 14.3953C10.5562 14.6578 10.5563 14.9391 10.6547 15.2109L10.6828 15.2906C10.6406 15.2859 10.5984 15.2813 10.5609 15.2813ZM11.2453 13.6734L10.0688 12.4969C9.94688 12.375 9.94688 12.1828 10.0688 12.0609L10.8469 11.2828C11.3344 10.7953 11.3344 10.0078 10.8469 9.52031L10.0688 8.74219C9.94688 8.62031 9.94688 8.42813 10.0688 8.30625L10.8469 7.52813C11.3344 7.04063 11.3344 6.25313 10.8469 5.76563C10.1344 5.01563 9.97969 4.99219 9.97969 4.77188C9.97969 4.6875 10.0125 4.6125 10.0688 4.55625L10.8469 3.77813C11.3344 3.29063 11.3344 2.50313 10.8469 2.01563C10.6547 1.82344 10.7906 1.49063 11.0625 1.49063C12.1453 1.49063 13.1672 1.9125 13.9313 2.68125C14.0531 2.80313 14.0531 2.99531 13.9313 3.11719L13.1531 3.89531C12.6656 4.38281 12.6656 5.17031 13.1531 5.65781L13.9313 6.43594C14.0531 6.55781 14.0531 6.75 13.9313 6.87188L13.1531 7.65C12.6656 8.1375 12.6656 8.925 13.1531 9.4125L13.6922 9.95156L12.975 10.2141C12.6609 10.3266 12.4125 10.5563 12.2719 10.8563C12.1312 11.1563 12.1172 11.4938 12.2297 11.8078L12.6047 12.8391C12.6609 12.9984 12.5813 13.1766 12.4219 13.2328L11.3906 13.6078C11.3438 13.6266 11.2922 13.65 11.2453 13.6734ZM14.0156 8.94375L13.8187 8.74688C13.7062 8.63438 13.6969 8.45625 13.7953 8.33437C13.8187 8.40938 13.8141 8.39062 14.0156 8.94375ZM15.6328 13.3922L16.0078 14.4234C16.0641 14.5828 15.9844 14.7609 15.825 14.8172L14.7938 15.1922C14.5875 15.2672 14.4094 15.3938 14.2687 15.5625H11.7797L11.5312 14.8828C11.475 14.7234 11.5547 14.5453 11.7141 14.4891L12.7453 14.1141C13.3922 13.8797 13.725 13.1625 13.4906 12.5156L13.1156 11.4844C13.0875 11.4094 13.0922 11.325 13.125 11.25C13.1578 11.175 13.2234 11.1188 13.2984 11.0906L14.3297 10.7156C14.4891 10.6594 14.6297 10.5703 14.7516 10.4578L14.7562 10.4531C14.7609 10.4484 14.7656 10.4438 14.7703 10.4391C15.1219 10.0969 15.2438 9.58125 15.075 9.12188L14.7 8.09063C14.6438 7.93125 14.7234 7.75313 14.8828 7.69688L15.9141 7.32188C16.5609 7.0875 16.8937 6.375 16.6594 5.72344L16.2844 4.69219C16.2281 4.53281 16.3078 4.35469 16.4672 4.29844C17.4844 3.92813 18.5859 3.975 19.5703 4.43438C19.8188 4.55156 19.8047 4.90781 19.5469 5.00156C18.9 5.23594 18.5672 5.94844 18.8016 6.59531L19.1766 7.62656C19.2328 7.78594 19.1531 7.96406 18.9938 8.02031L17.9625 8.39531C17.3156 8.62969 16.9828 9.34688 17.2172 9.99375L17.5453 10.8891C17.55 10.9594 17.5734 11.0297 17.6109 11.0906C17.6297 11.2313 17.55 11.3672 17.4094 11.4188L16.3781 11.7938C15.7312 12.0328 15.3984 12.7453 15.6328 13.3922ZM20.1094 13.8797V14.9766C20.1094 15.15 19.9406 15.2297 19.7859 15.2297H18.6891C18.4125 15.2297 18.1359 15.3469 17.9016 15.5578H16.4156C16.875 15.2484 17.0906 14.6531 16.8891 14.1L16.5141 13.0688C16.4578 12.9094 16.5375 12.7313 16.6969 12.675L17.7281 12.3C18.3 12.0938 18.6141 11.5172 18.5344 10.9594C18.5812 10.9359 18.6328 10.9172 18.6844 10.9172H20.0953C20.7844 10.9172 21.3422 10.3641 21.3422 9.675C21.3422 9.39844 21.675 9.2625 21.8672 9.45938C22.6406 10.2234 23.0625 11.2453 23.0625 12.3281C23.0625 12.5016 22.9172 12.6563 22.7531 12.6563H21.3422C20.6484 12.6563 20.1094 13.1953 20.1094 13.8797Z" />
    </symbol>
   
    <symbol id="pumpkin_seeds" viewBox="0 0 21 24"> 
            <path d="M20.4822 10.1448L20.3037 9.43559L19.6462 9.97101C19.4114 9.31348 19.1624 8.91896 19.0497 8.75457L18.9229 8.5761L18.7022 8.55731C18.5566 8.54792 18.2372 8.53853 17.7769 8.59489L18.0681 7.70722L17.2556 7.90448C17.0301 7.96084 16.7812 8.03129 16.5135 8.12052C16.5135 8.12052 16.5135 8.12052 16.5135 8.11583C16.6168 2.76162 14.3624 0.385103 14.1041 0.13618C14.0994 0.131483 14.0947 0.131483 14.09 0.126786C14.0853 0.12209 14.0806 0.112696 14.0759 0.108C14.0431 0.0845163 14.0102 0.0704263 13.9726 0.0516396C13.9538 0.0422462 13.9397 0.0328529 13.9209 0.0234595C13.8599 0.00467284 13.7941 -0.0047205 13.7284 -2.38311e-05C13.7284 -2.38311e-05 13.7284 -2.38311e-05 13.7237 -2.38311e-05C13.3667 0.0375496 10.1213 0.483733 6.83366 4.75301C6.64579 5.03951 6.47202 5.34009 6.30763 5.64538C4.81409 4.57454 3.6728 4.30213 3.33933 4.24107C3.20313 4.21759 3.06223 4.25516 2.9589 4.3444C2.78982 4.49 1.78474 5.40585 0.990998 7.37375C0.981605 7.39724 0.972211 7.41602 0.962818 7.43951C0.493151 8.62776 0.0986301 10.1824 0 12.1784C0.0375734 13.3338 0.216047 14.5127 0.535421 15.6775C0.854795 16.8422 1.30098 17.946 1.87867 18.9933C3.22192 21.0129 4.44305 21.5154 5.43875 21.5154C6.03053 21.5154 6.54716 21.337 6.95577 21.1961C7.17182 21.1209 8.10646 20.8579 8.26145 20.825C8.72642 21.7691 9.52485 22.1589 10.1072 22.4407C10.3139 22.5393 11.3049 23.1076 11.4975 23.2297C11.9953 23.5585 12.6622 24 13.5875 24C14.4658 24 15.5742 23.6008 16.9879 22.3233C17.7816 21.4779 18.4861 20.5197 19.0826 19.4677C19.6791 18.4203 20.1487 17.3213 20.4775 16.1706C21.0411 13.4184 20.7922 11.3753 20.4822 10.1448ZM17.4528 9.59058C17.8755 9.50135 18.1996 9.48256 18.411 9.47786C18.5331 9.68921 18.7115 10.0556 18.8759 10.591L16.4947 12.5166L17.4528 9.59058ZM12.62 1.24929C12.2489 1.8035 11.8779 2.43285 11.4834 3.18902C11.3659 3.41446 11.4505 3.69626 11.6759 3.81837C11.7464 3.85594 11.8215 3.87003 11.892 3.87003C12.0611 3.87003 12.2207 3.7808 12.3053 3.62111C12.8313 2.62072 13.3057 1.85516 13.7941 1.20232C14.4282 2.03833 15.6587 4.17062 15.5836 8.05947C15.5695 8.20506 15.5507 8.35066 15.5272 8.49626C15.5131 8.50095 15.5037 8.50565 15.4896 8.51504C15.3675 8.5714 15.2407 8.62776 15.1092 8.69352C15.0247 8.73579 14.9401 8.77806 14.8556 8.82033C14.8086 8.84381 14.7569 8.87199 14.71 8.89547C14.2356 9.1491 13.7659 9.43559 13.2963 9.75966C13.2634 9.77845 13.2352 9.80193 13.2023 9.82542C13.0943 9.90056 12.9863 9.98041 12.8783 10.0603C12.8313 10.0931 12.789 10.126 12.7421 10.1636C12.6434 10.2387 12.5448 10.3139 12.4462 10.3937C12.3851 10.4454 12.3194 10.497 12.2536 10.5487C12.1691 10.6145 12.0892 10.6849 12.0047 10.7554C11.8544 10.8822 11.7041 11.0137 11.5538 11.1499C11.3566 11.3612 11.164 11.5773 10.9761 11.8027C10.591 12.2677 10.2294 12.7608 9.89589 13.2822C9.7456 13.517 9.6 13.7565 9.4591 14.0008C9.44031 14.0336 9.42153 14.0712 9.40274 14.1041C9.24305 14.3859 9.09746 14.6724 8.95656 14.9636C8.95186 14.9683 8.95186 14.9777 8.94716 14.9871L8.93777 15.0105C8.93307 15.0199 8.92838 15.0293 8.92368 15.0387C8.90959 15.0716 8.8908 15.1092 8.87671 15.142C9.24305 12.1456 9.91468 9.33227 10.8869 6.77258C10.9761 6.53305 10.8587 6.26534 10.6145 6.1714C10.375 6.08217 10.1025 6.19958 10.0133 6.44381C8.98943 9.15379 8.28493 12.1362 7.91859 15.3158C7.83405 15.2923 7.75421 15.2642 7.66497 15.2407C6.6411 14.9542 5.3636 14.6019 5.42466 11.4927C5.53268 10.4125 5.7816 9.32287 6.15734 8.25203C6.3546 7.68843 6.59883 7.12013 6.88063 6.55653C6.88063 6.55184 6.88063 6.55184 6.88532 6.54714C7.10607 6.11035 7.3409 5.68765 7.59452 5.29313C9.55303 2.75692 11.4364 1.69548 12.62 1.24929ZM7.97965 19.9327C7.80117 19.9749 6.96047 20.2098 6.65519 20.3178C5.6501 20.6653 4.40078 21.1021 2.6771 18.5143C2.15108 17.5655 1.73307 16.5276 1.43718 15.4332C1.13659 14.3389 0.967515 13.2352 0.934638 12.1878C1.02387 10.4501 1.34325 9.08804 1.73307 8.03129C2.43288 7.99841 3.13268 7.90448 3.809 7.7354C4.05793 7.67434 4.21292 7.42072 4.14716 7.1718C4.08611 6.92287 3.83249 6.76788 3.58356 6.82894C3.1092 6.94636 2.62544 7.0215 2.13699 7.06847C2.62544 6.06808 3.13738 5.4716 3.40039 5.20389C3.82309 5.31191 4.73425 5.62659 5.88493 6.47669C5.87084 6.50487 5.86145 6.53775 5.84736 6.56593C5.75342 6.76788 5.65949 6.97454 5.57495 7.18119C5.47162 7.43481 5.37299 7.68373 5.28845 7.93266C4.88924 9.06925 4.62622 10.234 4.50411 11.4223C4.42896 15.2876 6.30763 15.8137 7.42544 16.1237C7.64618 16.1847 8.30372 16.4665 8.31781 16.4665C8.3225 16.4665 8.33659 16.4665 8.33659 16.4665C8.3272 16.49 8.3225 16.5182 8.31311 16.5464C8.22388 16.7906 8.14873 17.0254 8.08297 17.2509C8.07828 17.2649 8.07828 17.2743 8.07358 17.2884C8.02192 17.5374 7.98434 17.7722 7.95616 17.9976C7.94677 18.0728 7.94207 18.1479 7.93268 18.2231C7.91859 18.3687 7.9045 18.519 7.89511 18.6552C7.89041 18.7303 7.89041 18.7961 7.89041 18.8712C7.88571 19.0121 7.89041 19.1483 7.89511 19.2798C7.8998 19.3315 7.8998 19.3831 7.9045 19.4301C7.91859 19.6039 7.93738 19.7636 7.96556 19.9139C7.97495 19.9186 7.97495 19.928 7.97965 19.9327ZM19.5804 15.9546C19.2798 16.9972 18.8431 18.0258 18.2795 19.0121C17.7205 19.9984 17.0583 20.9002 16.3444 21.661C14.0102 23.7698 12.9065 23.0419 12.0188 22.4548C11.7511 22.2763 10.807 21.7409 10.5205 21.6C9.95225 21.3229 9.30411 21.0035 8.99883 20.1581C8.99883 20.1487 8.99883 20.1393 8.99413 20.1346C8.76869 19.4865 8.76869 18.5988 8.98943 17.4998C9.04579 17.3025 9.11155 17.1006 9.182 16.9033C9.24305 16.7248 9.3135 16.537 9.39335 16.335C9.51546 16.0203 9.65166 15.7103 9.79256 15.4098C9.80196 15.3863 9.81605 15.3581 9.81605 15.3581C9.81605 15.3581 9.81605 15.3581 9.81605 15.3534C9.96164 15.0434 10.1166 14.7475 10.281 14.4563C10.4125 14.2262 10.5487 14.0008 10.6896 13.78C10.8352 13.5546 10.9855 13.3338 11.1405 13.1225L11.1452 13.1178C11.1452 13.1178 11.1452 13.1178 11.1452 13.1131C11.4834 12.6481 11.8403 12.2066 12.216 11.8074C12.4086 11.6336 12.6012 11.4693 12.789 11.3143C12.8454 11.2673 12.9018 11.225 12.9534 11.1781C13.0943 11.0653 13.2305 10.9573 13.3667 10.8587C13.4231 10.8164 13.4795 10.7741 13.5358 10.7319C13.6814 10.6285 13.8223 10.5252 13.9632 10.4313C14.0055 10.4031 14.0477 10.3749 14.09 10.3467C14.4611 10.1025 14.818 9.89117 15.1609 9.708C15.2313 9.67043 15.3018 9.63755 15.3675 9.60467C15.4661 9.55771 15.5648 9.50604 15.6587 9.45908C15.7761 9.40272 15.8935 9.35105 16.011 9.30409C16.2317 9.21015 16.4477 9.12561 16.645 9.05516L14.6254 15.2313L19.726 11.1029C19.9233 12.2536 19.9937 13.888 19.5804 15.9546Z" />
    </symbol>
</svg>
